999
dxfrw 0.6.3
  0
SECTION
  2
HEADER
  9
$ACADVER
  1
AC1021
  9
$DWGCODEPAGE
  3
ANSI_936
  9
$INSBASE
 10
0
 20
0
 30
0
  9
$EXTMIN
 10
-20.56836309210744
 20
-239.7256432360647
 30
0
  9
$EXTMAX
 10
245.2883884921073
 20
16
 30
0
  9
$LIMMIN
 10
0
 20
0
  9
$LIMMAX
 10
420
 20
297
  9
$ORTHOMODE
 70
    0
  9
$REGENMODE
 70
    1
  9
$FILLMODE
 70
    1
  9
$QTEXTMODE
 70
    0
  9
$MIRRTEXT
 70
    0
  9
$LTSCALE
 40
1
  9
$ATTMODE
 70
    1
  9
$TEXTSIZE
 40
2.5
  9
$TRACEWID
 40
1
  9
$TEXTSTYLE
  7
Standard
  9
$CLAYER
  8
0
  9
$CELTYPE
  6
ByLayer
  9
$CECOLOR
 62
  256
  9
$CELTSCALE
 40
1
  9
$DISPSILH
 70
    0
  9
$DIMSCALE
 40
1
  9
$DIMASZ
 40
2.5
  9
$DIMEXO
 40
0.625
  9
$DIMDLI
 40
3.75
  9
$DIMRND
 40
0
  9
$DIMDLE
 40
0
  9
$DIMEXE
 40
1.25
  9
$DIMTP
 40
0
  9
$DIMTM
 40
0
  9
$DIMTXT
 40
2.5
  9
$DIMCEN
 40
2.5
  9
$DIMTSZ
 40
0
  9
$DIMTOL
 70
    0
  9
$DIMLIM
 70
    0
  9
$DIMTIH
 70
    0
  9
$DIMTOH
 70
    0
  9
$DIMSE1
 70
    0
  9
$DIMSE2
 70
    0
  9
$DIMTAD
 70
    1
  9
$DIMZIN
 70
    8
  9
$DIMBLK
  1

  9
$DIMASO
 70
    1
  9
$DIMSHO
 70
    1
  9
$DIMPOST
  1

  9
$DIMAPOST
  1

  9
$DIMALT
 70
    0
  9
$DIMALTD
 70
    3
  9
$DIMALTF
 40
0.03937007874016
  9
$DIMLFAC
 40
1
  9
$DIMTOFL
 70
    1
  9
$DIMTVP
 40
0
  9
$DIMTIX
 70
    0
  9
$DIMSOXD
 70
    0
  9
$DIMSAH
 70
    0
  9
$DIMBLK1
  1

  9
$DIMBLK2
  1

  9
$DIMSTYLE
  2
ISO-25
  9
$DIMCLRD
 70
    0
  9
$DIMCLRE
 70
    0
  9
$DIMCLRT
 70
    0
  9
$DIMTFAC
 40
1
  9
$DIMGAP
 40
0.625
  9
$DIMJUST
 70
    0
  9
$DIMSD1
 70
    0
  9
$DIMSD2
 70
    0
  9
$DIMTOLJ
 70
    0
  9
$DIMTZIN
 70
    8
  9
$DIMALTZ
 70
    0
  9
$DIMALTTZ
 70
    0
  9
$DIMUPT
 70
    0
  9
$DIMDEC
 70
    2
  9
$DIMTDEC
 70
    2
  9
$DIMALTU
 70
    2
  9
$DIMALTTD
 70
    3
  9
$DIMTXSTY
  7
Standard
  9
$DIMAUNIT
 70
    0
  9
$DIMADEC
 70
    0
  9
$DIMALTRND
 40
0
  9
$DIMAZIN
 70
    0
  9
$DIMDSEP
 70
   44
  9
$DIMATFIT
 70
    3
  9
$DIMFRAC
 70
    0
  9
$DIMLDRBLK
  1

  9
$DIMLUNIT
 70
    2
  9
$DIMLWD
 70
   -2
  9
$DIMLWE
 70
   -2
  9
$DIMTMOVE
 70
    0
  9
$DIMFXL
 40
1
  9
$DIMFXLON
 70
    0
  9
$DIMJOGANG
 40
0.7853981633974483
  9
$DIMTFILL
 70
    0
  9
$DIMTFILLCLR
 70
    0
  9
$DIMARCSYM
 70
    0
  9
$DIMLTYPE
  6

  9
$DIMLTEX1
  6

  9
$DIMLTEX2
  6

  9
$LUNITS
 70
    2
  9
$LUPREC
 70
    4
  9
$SKETCHINC
 40
1
  9
$FILLETRAD
 40
0
  9
$AUNITS
 70
    0
  9
$AUPREC
 70
    0
  9
$MENU
  1
.
  9
$ELEVATION
 40
0
  9
$PELEVATION
 40
0
  9
$THICKNESS
 40
0
  9
$LIMCHECK
 70
    0
  9
$CHAMFERA
 40
0
  9
$CHAMFERB
 40
0
  9
$CHAMFERC
 40
0
  9
$CHAMFERD
 40
0
  9
$SKPOLY
 70
    0
  9
$USRTIMER
 70
    1
  9
$ANGBASE
 50
0
  9
$ANGDIR
 70
    0
  9
$PDMODE
 70
    0
  9
$PDSIZE
 40
0
  9
$PLINEWID
 40
0
  9
$SPLFRAME
 70
    0
  9
$SPLINETYPE
 70
    6
  9
$SPLINESEGS
 70
    8
  9
$HANDSEED
  5
20000
  9
$SURFTAB1
 70
    6
  9
$SURFTAB2
 70
    6
  9
$SURFTYPE
 70
    6
  9
$SURFU
 70
    6
  9
$SURFV
 70
    6
  9
$UCSBASE
  2

  9
$UCSNAME
  2

  9
$UCSORG
 10
0
 20
0
 30
0
  9
$UCSXDIR
 10
1
 20
0
 30
0
  9
$UCSYDIR
 10
0
 20
1
 30
0
  9
$UCSORTHOREF
  2

  9
$UCSORTHOVIEW
 70
    0
  9
$UCSORGTOP
 10
0
 20
0
 30
0
  9
$UCSORGBOTTOM
 10
0
 20
0
 30
0
  9
$UCSORGLEFT
 10
0
 20
0
 30
0
  9
$UCSORGRIGHT
 10
0
 20
0
 30
0
  9
$UCSORGFRONT
 10
0
 20
0
 30
0
  9
$UCSORGBACK
 10
0
 20
0
 30
0
  9
$PUCSBASE
  2

  9
$PUCSNAME
  2

  9
$PUCSORG
 10
0
 20
0
 30
0
  9
$PUCSXDIR
 10
1
 20
0
 30
0
  9
$PUCSYDIR
 10
0
 20
1
 30
0
  9
$PUCSORTHOREF
  2

  9
$PUCSORTHOVIEW
 70
    0
  9
$PUCSORGTOP
 10
0
 20
0
 30
0
  9
$PUCSORGBOTTOM
 10
0
 20
0
 30
0
  9
$PUCSORGLEFT
 10
0
 20
0
 30
0
  9
$PUCSORGRIGHT
 10
0
 20
0
 30
0
  9
$PUCSORGFRONT
 10
0
 20
0
 30
0
  9
$PUCSORGBACK
 10
0
 20
0
 30
0
  9
$USERI1
 70
    0
  9
$USERI2
 70
    0
  9
$USERI3
 70
    0
  9
$USERI4
 70
    0
  9
$USERI5
 70
    0
  9
$USERR1
 40
0
  9
$USERR2
 40
0
  9
$USERR3
 40
0
  9
$USERR4
 40
0
  9
$USERR5
 40
0
  9
$WORLDVIEW
 70
    1
  9
$SHADEDGE
 70
    3
  9
$SHADEDIF
 70
   70
  9
$TILEMODE
 70
    1
  9
$MAXACTVP
 70
   64
  9
$PINSBASE
 10
0
 20
0
 30
0
  9
$PLIMCHECK
 70
    0
  9
$PEXTMIN
 10
0
 20
0
 30
0
  9
$PEXTMAX
 10
0
 20
0
 30
0
  9
$GRIDMODE
 70
    1
  9
$SNAPSTYLE
 70
    0
  9
$PLIMMIN
 10
0
 20
0
  9
$PLIMMAX
 10
12
 20
9
  9
$UNITMODE
 70
    0
  9
$VISRETAIN
 70
    1
  9
$PLINEGEN
 70
    0
  9
$PSLTSCALE
 70
    1
  9
$TREEDEPTH
 70
 3020
  9
$CMLSTYLE
  2
Standard
  9
$CMLJUST
 70
    0
  9
$CMLSCALE
 40
20
  9
$PROXYGRAPHICS
 70
    1
  9
$MEASUREMENT
 70
    1
  9
$CELWEIGHT
370
   -1
  9
$ENDCAPS
280
    0
  9
$JOINSTYLE
280
    0
  9
$LWDISPLAY
290
    0
  9
$INSUNITS
 70
    4
  9
$HYPERLINKBASE
  1

  9
$STYLESHEET
  1

  9
$XEDIT
290
    1
  9
$CEPSNTYPE
380
    0
  9
$PSTYLEMODE
290
    1
  9
$EXTNAMES
290
    1
  9
$PSVPSCALE
 40
0
  9
$OLESTARTUP
290
    0
  9
$SORTENTS
280
  127
  9
$INDEXCTL
280
    0
  9
$HIDETEXT
280
    1
  9
$XCLIPFRAME
290
    0
  9
$HALOGAP
280
    0
  9
$OBSCOLOR
 70
  257
  9
$OBSLTYPE
280
    0
  9
$INTERSECTIONDISPLAY
280
    0
  9
$INTERSECTIONCOLOR
 70
  257
  9
$DIMASSOC
280
    2
  9
$PROJECTNAME
  1

  9
$CAMERADISPLAY
290
    0
  9
$LENSLENGTH
 40
50
  9
$CAMERAHEIGHT
 40
0
  9
$STEPSPERSEC
 40
2
  9
$STEPSIZE
 40
6
  9
$3DDWFPREC
 40
2
  9
$PSOLWIDTH
 40
5
  9
$PSOLHEIGHT
 40
80
  9
$LOFTANG1
 40
1.570796326794896
  9
$LOFTANG2
 40
1.570796326794896
  9
$LOFTMAG1
 40
0
  9
$LOFTMAG2
 40
0
  9
$LOFTPARAM
 70
    7
  9
$LOFTNORMALS
280
    1
  9
$LATITUDE
 40
37.795
  9
$LONGITUDE
 40
-122.394
  9
$NORTHDIRECTION
 40
0
  9
$TIMEZONE
 70
-8000
  9
$LIGHTGLYPHDISPLAY
280
    1
  9
$TILEMODELIGHTSYNCH
280
    1
  9
$SOLIDHIST
280
    0
  9
$SHOWHIST
280
    1
  9
$DWFFRAME
280
    2
  9
$DGNFRAME
280
    0
  9
$REALWORLDSCALE
290
    1
  9
$INTERFERECOLOR
 62
    1
  9
$CSHADOW
280
    0
  9
$SHADOWPLANELOCATION
 40
0
  0
ENDSEC
  0
SECTION
  2
CLASSES
  0
ENDSEC
  0
SECTION
  2
TABLES
  0
TABLE
  2
VPORT
  5
8
330
0
100
AcDbSymbolTable
 70
    1
  0
VPORT
  5
31
330
2
100
AcDbSymbolTableRecord
100
AcDbViewportTableRecord
  2
*ACTIVE
 70
    0
 10
0
 20
0
 11
1
 21
1
 12
235.5055791935773
 22
40.8179095389063
 13
0
 23
0
 14
10
 24
10
 15
10
 25
10
 16
0
 26
0
 36
1
 17
0
 27
0
 37
0
 40
379.7441471709485
 41
1.915458937198068
 42
50
 43
0
 44
0
 50
0
 51
0
 71
    0
 72
  100
 73
    1
 74
    3
 75
    0
 76
    1
 77
    0
 78
    0
281
    0
 65
    1
110
0
120
0
130
0
111
1
121
0
131
0
112
0
122
1
132
0
 79
    0
146
0
348
10020
 60
    7
 61
    5
292
1
282
    1
141
0
142
0
 63
  250
421
3358443
  0
ENDTAB
  0
TABLE
  2
LTYPE
  5
5
330
0
100
AcDbSymbolTable
 70
    4
  0
LTYPE
  5
14
330
5
100
AcDbSymbolTableRecord
100
AcDbLinetypeTableRecord
  2
ByBlock
 70
    0
  3

 72
   65
 73
    0
 40
0
  0
LTYPE
  5
15
330
5
100
AcDbSymbolTableRecord
100
AcDbLinetypeTableRecord
  2
ByLayer
 70
    0
  3

 72
   65
 73
    0
 40
0
  0
LTYPE
  5
16
330
5
100
AcDbSymbolTableRecord
100
AcDbLinetypeTableRecord
  2
Continuous
 70
    0
  3
Solid line
 72
   65
 73
    0
 40
0
  0
LTYPE
  5
32
330
5
100
AcDbSymbolTableRecord
100
AcDbLinetypeTableRecord
  2
DOT
 70
    0
  3
Dot . . . . . . . . . . . . . . . . . . . . . .
 72
   65
 73
    2
 40
6.35
 49
0
 74
    0
 49
-6.35
 74
    0
  0
LTYPE
  5
33
330
5
100
AcDbSymbolTableRecord
100
AcDbLinetypeTableRecord
  2
DOTTINY
 70
    0
  3
Dot (.15x) .....................................
 72
   65
 73
    2
 40
0.9525
 49
0
 74
    0
 49
-0.9525
 74
    0
  0
LTYPE
  5
34
330
5
100
AcDbSymbolTableRecord
100
AcDbLinetypeTableRecord
  2
DOT2
 70
    0
  3
Dot (.5x) .....................................
 72
   65
 73
    2
 40
3.175
 49
0
 74
    0
 49
-3.175
 74
    0
  0
LTYPE
  5
35
330
5
100
AcDbSymbolTableRecord
100
AcDbLinetypeTableRecord
  2
DOTX2
 70
    0
  3
Dot (2x) .  .  .  .  .  .  .  .  .  .  .  .  .
 72
   65
 73
    2
 40
12.7
 49
0
 74
    0
 49
-12.7
 74
    0
  0
LTYPE
  5
36
330
5
100
AcDbSymbolTableRecord
100
AcDbLinetypeTableRecord
  2
DASHED
 70
    0
  3
Dashed _ _ _ _ _ _ _ _ _ _ _ _ _ _ _ _ _
 72
   65
 73
    2
 40
19.05
 49
12.7
 74
    0
 49
-6.35
 74
    0
  0
LTYPE
  5
37
330
5
100
AcDbSymbolTableRecord
100
AcDbLinetypeTableRecord
  2
DASHEDTINY
 70
    0
  3
Dashed (.15x) _ _ _ _ _ _ _ _ _ _ _ _ _ _ _ _ _
 72
   65
 73
    2
 40
2.8575
 49
1.905
 74
    0
 49
-0.9525
 74
    0
  0
LTYPE
  5
38
330
5
100
AcDbSymbolTableRecord
100
AcDbLinetypeTableRecord
  2
DASHED2
 70
    0
  3
Dashed (.5x) _ _ _ _ _ _ _ _ _ _ _ _ _ _ _ _ _
 72
   65
 73
    2
 40
9.524999999999999
 49
6.35
 74
    0
 49
-3.175
 74
    0
  0
LTYPE
  5
39
330
5
100
AcDbSymbolTableRecord
100
AcDbLinetypeTableRecord
  2
DASHEDX2
 70
    0
  3
Dashed (2x) ____  ____  ____  ____  ____  ___
 72
   65
 73
    2
 40
38.09999999999999
 49
25.4
 74
    0
 49
-12.7
 74
    0
  0
LTYPE
  5
3A
330
5
100
AcDbSymbolTableRecord
100
AcDbLinetypeTableRecord
  2
DASHDOT
 70
    0
  3
Dash dot __ . __ . __ . __ . __ . __ . __ . __
 72
   65
 73
    4
 40
25.4
 49
12.7
 74
    0
 49
-6.35
 74
    0
 49
0
 74
    0
 49
-6.35
 74
    0
  0
LTYPE
  5
3B
330
5
100
AcDbSymbolTableRecord
100
AcDbLinetypeTableRecord
  2
DASHDOTTINY
 70
    0
  3
Dash dot (.15x) _._._._._._._._._._._._._._._.
 72
   65
 73
    4
 40
3.81
 49
1.905
 74
    0
 49
-0.9525
 74
    0
 49
0
 74
    0
 49
-0.9525
 74
    0
  0
LTYPE
  5
3C
330
5
100
AcDbSymbolTableRecord
100
AcDbLinetypeTableRecord
  2
DASHDOT2
 70
    0
  3
Dash dot (.5x) _._._._._._._._._._._._._._._.
 72
   65
 73
    4
 40
12.7
 49
6.35
 74
    0
 49
-3.175
 74
    0
 49
0
 74
    0
 49
-3.175
 74
    0
  0
LTYPE
  5
3D
330
5
100
AcDbSymbolTableRecord
100
AcDbLinetypeTableRecord
  2
DASHDOTX2
 70
    0
  3
Dash dot (2x) ____  .  ____  .  ____  .  ___
 72
   65
 73
    4
 40
50.8
 49
25.4
 74
    0
 49
-12.7
 74
    0
 49
0
 74
    0
 49
-12.7
 74
    0
  0
LTYPE
  5
3E
330
5
100
AcDbSymbolTableRecord
100
AcDbLinetypeTableRecord
  2
DIVIDE
 70
    0
  3
Divide ____ . . ____ . . ____ . . ____ . . ____
 72
   65
 73
    6
 40
31.75
 49
12.7
 74
    0
 49
-6.35
 74
    0
 49
0
 74
    0
 49
-6.35
 74
    0
 49
0
 74
    0
 49
-6.35
 74
    0
  0
LTYPE
  5
3F
330
5
100
AcDbSymbolTableRecord
100
AcDbLinetypeTableRecord
  2
DIVIDETINY
 70
    0
  3
Divide (.15x) __..__..__..__..__..__..__..__.._
 72
   65
 73
    6
 40
4.7625
 49
1.905
 74
    0
 49
-0.9525
 74
    0
 49
0
 74
    0
 49
-0.9525
 74
    0
 49
0
 74
    0
 49
-0.9525
 74
    0
  0
LTYPE
  5
40
330
5
100
AcDbSymbolTableRecord
100
AcDbLinetypeTableRecord
  2
DIVIDE2
 70
    0
  3
Divide (.5x) __..__..__..__..__..__..__..__.._
 72
   65
 73
    6
 40
15.875
 49
6.35
 74
    0
 49
-3.175
 74
    0
 49
0
 74
    0
 49
-3.175
 74
    0
 49
0
 74
    0
 49
-3.175
 74
    0
  0
LTYPE
  5
41
330
5
100
AcDbSymbolTableRecord
100
AcDbLinetypeTableRecord
  2
DIVIDEX2
 70
    0
  3
Divide (2x) ________  .  .  ________  .  .  _
 72
   65
 73
    6
 40
63.5
 49
25.4
 74
    0
 49
-12.7
 74
    0
 49
0
 74
    0
 49
-12.7
 74
    0
 49
0
 74
    0
 49
-12.7
 74
    0
  0
LTYPE
  5
42
330
5
100
AcDbSymbolTableRecord
100
AcDbLinetypeTableRecord
  2
BORDER
 70
    0
  3
Border __ __ . __ __ . __ __ . __ __ . __ __ .
 72
   65
 73
    6
 40
44.45
 49
12.7
 74
    0
 49
-6.35
 74
    0
 49
12.7
 74
    0
 49
-6.35
 74
    0
 49
0
 74
    0
 49
-6.35
 74
    0
  0
LTYPE
  5
43
330
5
100
AcDbSymbolTableRecord
100
AcDbLinetypeTableRecord
  2
BORDERTINY
 70
    0
  3
Border (.15x) __.__.__.__.__.__.__.__.__.__.__.
 72
   65
 73
    6
 40
6.6675
 49
1.905
 74
    0
 49
-0.9525
 74
    0
 49
1.905
 74
    0
 49
-0.9525
 74
    0
 49
0
 74
    0
 49
-0.9525
 74
    0
  0
LTYPE
  5
44
330
5
100
AcDbSymbolTableRecord
100
AcDbLinetypeTableRecord
  2
BORDER2
 70
    0
  3
Border (.5x) __.__.__.__.__.__.__.__.__.__.__.
 72
   65
 73
    6
 40
22.225
 49
6.35
 74
    0
 49
-3.175
 74
    0
 49
6.35
 74
    0
 49
-3.175
 74
    0
 49
0
 74
    0
 49
-3.175
 74
    0
  0
LTYPE
  5
45
330
5
100
AcDbSymbolTableRecord
100
AcDbLinetypeTableRecord
  2
BORDERX2
 70
    0
  3
Border (2x) ____  ____  .  ____  ____  .  ___
 72
   65
 73
    6
 40
88.89999999999999
 49
25.4
 74
    0
 49
-12.7
 74
    0
 49
25.4
 74
    0
 49
-12.7
 74
    0
 49
0
 74
    0
 49
-12.7
 74
    0
  0
LTYPE
  5
46
330
5
100
AcDbSymbolTableRecord
100
AcDbLinetypeTableRecord
  2
CENTER
 70
    0
  3
Center ____ _ ____ _ ____ _ ____ _ ____ _ ____
 72
   65
 73
    4
 40
50.8
 49
31.75
 74
    0
 49
-6.35
 74
    0
 49
6.35
 74
    0
 49
-6.35
 74
    0
  0
LTYPE
  5
47
330
5
100
AcDbSymbolTableRecord
100
AcDbLinetypeTableRecord
  2
CENTERTINY
 70
    0
  3
Center (.15x) ___ _ ___ _ ___ _ ___ _ ___ _ ___
 72
   65
 73
    4
 40
7.62
 49
4.7625
 74
    0
 49
-0.9525
 74
    0
 49
0.9525
 74
    0
 49
-0.9525
 74
    0
  0
LTYPE
  5
48
330
5
100
AcDbSymbolTableRecord
100
AcDbLinetypeTableRecord
  2
CENTER2
 70
    0
  3
Center (.5x) ___ _ ___ _ ___ _ ___ _ ___ _ ___
 72
   65
 73
    4
 40
28.575
 49
19.05
 74
    0
 49
-3.175
 74
    0
 49
3.175
 74
    0
 49
-3.175
 74
    0
  0
LTYPE
  5
49
330
5
100
AcDbSymbolTableRecord
100
AcDbLinetypeTableRecord
  2
CENTERX2
 70
    0
  3
Center (2x) ________  __  ________  __  _____
 72
   65
 73
    4
 40
101.6
 49
63.5
 74
    0
 49
-12.7
 74
    0
 49
12.7
 74
    0
 49
-12.7
 74
    0
  0
ENDTAB
  0
TABLE
  2
LAYER
  5
2
330
0
100
AcDbSymbolTable
 70
    1
  0
LAYER
  5
10
330
2
100
AcDbSymbolTableRecord
100
AcDbLayerTableRecord
  2
0
 70
    0
 62
    7
  6
CONTINUOUS
370
   -3
390
F
  0
ENDTAB
  0
TABLE
  2
STYLE
  5
3
330
0
100
AcDbSymbolTable
 70
    3
  0
STYLE
  5
4A
330
2
100
AcDbSymbolTableRecord
100
AcDbTextStyleTableRecord
  2
Standard
 70
    0
 40
0
 41
1
 50
0
 71
    0
 42
1
  3
txt
  4

  0
ENDTAB
  0
TABLE
  2
VIEW
  5
6
330
0
100
AcDbSymbolTable
 70
    0
  0
ENDTAB
  0
TABLE
  2
UCS
  5
7
330
0
100
AcDbSymbolTable
 70
    0
  0
ENDTAB
  0
TABLE
  2
APPID
  5
9
330
0
100
AcDbSymbolTable
 70
    1
  0
APPID
  5
12
330
9
100
AcDbSymbolTableRecord
100
AcDbRegAppTableRecord
  2
ACAD
 70
    0
  0
APPID
  5
4B
330
9
100
AcDbSymbolTableRecord
100
AcDbRegAppTableRecord
  2
LibreCad
 70
    0
  0
ENDTAB
  0
TABLE
  2
DIMSTYLE
  5
A
330
0
100
AcDbSymbolTable
 70
    1
100
AcDbDimStyleTable
 71
    1
  0
DIMSTYLE
105
4C
330
A
100
AcDbSymbolTableRecord
100
AcDbDimStyleTableRecord
  2
Standard
 70
    0
 40
1
 41
2.5
 42
0.625
 43
0.38
 44
1.25
 45
0
 46
0
 47
0
 48
0
 49
1
140
2.5
141
0.09
142
0
143
25.4
144
1
145
0
146
1
147
0.625
148
0
 71
    0
 72
    0
 73
    0
 74
    1
 75
    0
 76
    0
 77
    0
 78
    8
 79
    0
170
    0
171
    2
172
    0
173
    0
174
    0
175
    0
176
    0
177
    0
178
    0
179
    0
271
    2
272
    4
273
    2
274
    2
275
    0
276
    0
277
    2
278
   44
279
    0
280
    0
281
    0
282
    0
283
    1
284
    0
285
    0
286
    0
288
    0
289
    3
340
Standard
341

371
   -2
372
   -2
  0
ENDTAB
  0
TABLE
  2
BLOCK_RECORD
  5
1
330
0
100
AcDbSymbolTable
 70
    2
  0
BLOCK_RECORD
  5
1F
330
1
100
AcDbSymbolTableRecord
100
AcDbBlockTableRecord
  2
*Model_Space
 70
    0
280
    1
281
    0
  0
BLOCK_RECORD
  5
1E
330
1
100
AcDbSymbolTableRecord
100
AcDbBlockTableRecord
  2
*Paper_Space
 70
    0
280
    1
281
    0
  0
ENDTAB
  0
ENDSEC
  0
SECTION
  2
BLOCKS
  0
BLOCK
  5
20
330
1F
100
AcDbEntity
  8
0
100
AcDbBlockBegin
  2
*Model_Space
 70
    0
 10
0
 20
0
 30
0
  3
*Model_Space
  1

  0
ENDBLK
  5
21
330
1F
100
AcDbEntity
  8
0
100
AcDbBlockEnd
  0
BLOCK
  5
1C
330
1B
100
AcDbEntity
  8
0
100
AcDbBlockBegin
  2
*Paper_Space
 70
    0
 10
0
 20
0
 30
0
  3
*Paper_Space
  1

  0
ENDBLK
  5
1D
330
1F
100
AcDbEntity
  8
0
100
AcDbBlockEnd
  0
ENDSEC
  0
SECTION
  2
ENTITIES
  0
SPLINE
  5
4D
100
AcDbEntity
  8
0
  6
ByLayer
 62
  256
370
   -1
100
AcDbSpline
210
0
220
0
230
0
 70
    8
 71
    2
 72
    6
 73
    3
 74
    0
 42
1e-007
 43
1e-007
 40
0
 40
0
 40
0
 40
1
 40
1
 40
1
 10
221.9171115360221
 20
-14.09151951892525
 30
0
 10
221.2415365626722
 20
-8.496288267571359
 30
0
 10
215.7040840134624
 20
-8.371974429583815
 30
0
  0
SPLINE
  5
4E
100
AcDbEntity
  8
0
  6
ByLayer
 62
  256
370
   -1
100
AcDbSpline
210
0
220
0
230
0
 70
    8
 71
    2
 72
    6
 73
    3
 74
    0
 42
1e-007
 43
1e-007
 40
0
 40
0
 40
0
 40
1
 40
1
 40
1
 10
1.60291386397779
 20
-14.09151951892525
 30
0
 10
2.278488837327645
 20
-8.496288267571359
 30
0
 10
7.815941386537531
 20
-8.371974429583815
 30
0
  0
SPLINE
  5
4F
100
AcDbEntity
  8
0
  6
ByLayer
 62
  256
370
   -1
100
AcDbSpline
210
0
220
0
230
0
 70
    8
 71
    2
 72
    6
 73
    3
 74
    0
 42
1e-007
 43
1e-007
 40
0
 40
0
 40
0
 40
1
 40
1
 40
1
 10
67.49822866364704
 20
-104.25795647471
 30
0
 10
73.07232501388212
 20
-105.7179649300581
 30
0
 10
78.83161124169578
 20
-105.6508668412271
 30
0
  0
LINE
  5
50
100
AcDbEntity
  8
0
  6
ByLayer
 62
  256
370
   -1
100
AcDbLine
 10
221.9171115360221
 20
-14.09151951892525
 11
233.567446673503
 21
-80.16420835401959
  0
LINE
  5
51
100
AcDbEntity
  8
0
  6
ByLayer
 62
  256
370
   -1
100
AcDbLine
 10
78.83161124169578
 20
-105.6508668412271
 11
144.6884141583041
 21
-105.6508668412271
  0
LINE
  5
52
100
AcDbEntity
  8
0
  6
ByLayer
 62
  256
370
   -1
100
AcDbLine
 10
1.60291386397779
 20
-14.09151951892525
 11
-10.04742127350315
 21
-80.16420835401959
  0
LINE
  5
53
100
AcDbEntity
  8
0
  6
ByLayer
 62
  256
370
   -1
100
AcDbLine
 10
121.9883662638372
 20
-8.371974429583815
 11
143.1204802609722
 21
-8.371974429583815
  0
LINE
  5
54
100
AcDbEntity
  8
0
  6
ByLayer
 62
  256
370
   -1
100
AcDbLine
 10
161.9556660933326
 20
-8.371974429583815
 11
215.7040840134624
 21
-8.371974429583815
  0
CIRCLE
  5
55
100
AcDbEntity
  8
0
  6
ByLayer
 62
  256
370
   -1
100
AcDbCircle
 10
-0.3347106878143791
 20
-39.29011709564509
 40
1.2
  0
CIRCLE
  5
56
100
AcDbEntity
  8
0
  6
ByLayer
 62
  256
370
   -1
100
AcDbCircle
 10
80.18043399999999
 20
-11.25091820715068
 40
1.2
  0
CIRCLE
  5
57
100
AcDbEntity
  8
0
  6
ByLayer
 62
  256
370
   -1
100
AcDbCircle
 10
223.8547360878143
 20
-39.29011709564509
 40
1.2
  0
CIRCLE
  5
58
100
AcDbEntity
  8
0
  6
ByLayer
 62
  256
370
   -1
100
AcDbCircle
 10
159.2133217762794
 20
-101.1233538130684
 40
1.2
  0
CIRCLE
  5
59
100
AcDbEntity
  8
0
  6
ByLayer
 62
  256
370
   -1
100
AcDbCircle
 10
64.30670362372047
 20
-101.1233538130684
 40
1.2
  0
CIRCLE
  5
5A
100
AcDbEntity
  8
0
  6
ByLayer
 62
  256
370
   -1
100
AcDbCircle
 10
143.3395913999999
 20
-11.25091820715065
 40
1.2
  0
SPLINE
  5
5B
100
AcDbEntity
  8
0
  6
ByLayer
 62
  256
370
   -1
100
AcDbSpline
210
0
220
0
230
0
 70
    8
 71
    2
 72
    6
 73
    3
 74
    0
 42
1e-007
 43
1e-007
 40
0
 40
0
 40
0
 40
1
 40
1
 40
1
 10
159.2776851757154
 20
-17.65848274398175
 30
0
 10
159.2741733256816
 20
-18.52991511864063
 30
0
 10
158.2515739750484
 20
-18.46364984529563
 30
0
  0
SPLINE
  5
5C
100
AcDbEntity
  8
0
  6
ByLayer
 62
  256
370
   -1
100
AcDbSpline
210
0
220
0
230
0
 70
    8
 71
    2
 72
    6
 73
    3
 74
    0
 42
1e-007
 43
1e-007
 40
0
 40
0
 40
0
 40
1
 40
1
 40
1
 10
159.2776851757154
 20
-10.81012125847528
 30
0
 10
159.4064799539033
 20
-8.367051834802295
 30
0
 10
161.9556660933326
 20
-8.371974429583815
 30
0
  0
SPLINE
  5
5D
100
AcDbEntity
  8
0
  6
ByLayer
 62
  256
370
   -1
100
AcDbSpline
210
0
220
0
230
0
 70
    8
 71
    2
 72
    6
 73
    3
 74
    0
 42
1e-007
 43
1e-007
 40
0
 40
0
 40
0
 40
1
 40
1
 40
1
 10
145.7984611785895
 20
-10.81012125847528
 30
0
 10
145.6696664004016
 20
-8.367051834802295
 30
0
 10
143.1204802609722
 20
-8.371974429583815
 30
0
  0
SPLINE
  5
5E
100
AcDbEntity
  8
0
  6
ByLayer
 62
  256
370
   -1
100
AcDbSpline
210
0
220
0
230
0
 70
    8
 71
    2
 72
    6
 73
    3
 74
    0
 42
1e-007
 43
1e-007
 40
0
 40
0
 40
0
 40
1
 40
1
 40
1
 10
156.0217967363529
 20
-104.2579564747101
 30
0
 10
150.4477003861178
 20
-105.7179649300582
 30
0
 10
144.6884141583041
 20
-105.6508668412271
 30
0
  0
SPLINE
  5
5F
100
AcDbEntity
  8
0
  6
ByLayer
 62
  256
370
   -1
100
AcDbSpline
210
0
220
0
230
0
 70
    8
 71
    2
 72
    6
 73
    3
 74
    0
 42
1e-007
 43
1e-007
 40
0
 40
0
 40
0
 40
1
 40
1
 40
1
 10
-7.147634900349431
 20
-89.16748177060023
 30
0
 10
-11.19856007289142
 20
-87.63869584643763
 30
0
 10
-10.56836309210745
 20
-83.11863209167646
 30
0
  0
SPLINE
  5
60
100
AcDbEntity
  8
0
  6
ByLayer
 62
  256
370
   -1
100
AcDbSpline
210
0
220
0
230
0
 70
    8
 71
    2
 72
    6
 73
    3
 74
    0
 42
1e-007
 43
1e-007
 40
0
 40
0
 40
0
 40
1
 40
1
 40
1
 10
230.6676603003492
 20
-89.16748177060023
 30
0
 10
234.7185854728912
 20
-87.63869584643763
 30
0
 10
234.0883884921072
 20
-83.11863209167646
 30
0
  0
LINE
  5
61
100
AcDbEntity
  8
0
  6
ByLayer
 62
  256
370
   -1
100
AcDbLine
 10
230.3166131667301
 20
-89.23844977387463
 11
156.0217967363527
 21
-104.2579564747101
  0
LINE
  5
62
100
AcDbEntity
  8
0
  6
ByLayer
 62
  256
370
   -1
100
AcDbLine
 10
-6.796545813825006
 20
-89.23845825511157
 11
67.49822866364704
 21
-104.2579564747101
  0
LINE
  5
63
100
AcDbEntity
  8
0
  6
ByLayer
 62
  256
370
   -1
100
AcDbLine
 10
234.0883884921072
 20
-83.11863209167646
 11
233.567446673503
 21
-80.16420835401959
  0
LINE
  5
64
100
AcDbEntity
  8
0
  6
ByLayer
 62
  256
370
   -1
100
AcDbLine
 10
230.6676603003492
 20
-89.16748177060023
 11
230.3166131667301
 21
-89.23844977387463
  0
LINE
  5
65
100
AcDbEntity
  8
0
  6
ByLayer
 62
  256
370
   -1
100
AcDbLine
 10
-10.56836309210745
 20
-83.11863209167646
 11
-10.04742127350315
 21
-80.16420835401959
  0
LINE
  5
66
100
AcDbEntity
  8
0
  6
ByLayer
 62
  256
370
   -1
100
AcDbLine
 10
-7.147634900349431
 20
-89.16748177060023
 11
-6.796545813825006
 21
-89.23845825511157
  0
CIRCLE
  5
67
100
AcDbEntity
  8
0
  6
ByLayer
 62
  256
370
   -1
100
AcDbCircle
 10
191.8522332068804
 20
-11.25091820715065
 40
1.2
  0
LWPOLYLINE
  5
68
100
AcDbEntity
  8
0
  6
ByLayer
 62
  256
370
   -1
100
AcDbPolyline
 90
    4
 70
    1
 43
0
 10
103.1716869097905
 20
-189.5651537247564
 10
120.3166869097905
 20
-189.5651537247564
 10
120.3166869097905
 20
-171.2931537247565
 10
103.1716869097905
 20
-171.2931537247565
  0
LINE
  5
69
100
AcDbEntity
  8
0
  6
ByLayer
 62
  256
370
   -1
100
AcDbLine
 10
211.9591755704338
 20
-196.8330063532431
 11
225.7541456199813
 21
-194.3763937805963
  0
LINE
  5
6A
100
AcDbEntity
  8
0
  6
ByLayer
 62
  256
370
   -1
100
AcDbLine
 10
225.7541456199813
 20
-194.3763937805963
 11
228.207076429566
 21
-208.15068909627
  0
LINE
  5
6B
100
AcDbEntity
  8
0
  6
ByLayer
 62
  256
370
   -1
100
AcDbLine
 10
228.207076429566
 20
-208.15068909627
 11
214.4121063800185
 21
-210.6073016689168
  0
LINE
  5
6C
100
AcDbEntity
  8
0
  6
ByLayer
 62
  256
370
   -1
100
AcDbLine
 10
214.4121063800185
 20
-210.6073016689168
 11
211.9591755704338
 21
-196.8330063532431
  0
LINE
  5
6D
100
AcDbEntity
  8
0
  6
ByLayer
 62
  256
370
   -1
100
AcDbLine
 10
192.7270575704339
 20
-197.1776843532431
 11
206.5220276199814
 21
-194.7210717805963
  0
LINE
  5
6E
100
AcDbEntity
  8
0
  6
ByLayer
 62
  256
370
   -1
100
AcDbLine
 10
206.5220276199814
 20
-194.7210717805963
 11
208.9749584295661
 21
-208.4953670962699
  0
LINE
  5
6F
100
AcDbEntity
  8
0
  6
ByLayer
 62
  256
370
   -1
100
AcDbLine
 10
208.9749584295661
 20
-208.4953670962699
 11
195.1799883800186
 21
-210.9519796689167
  0
LINE
  5
70
100
AcDbEntity
  8
0
  6
ByLayer
 62
  256
370
   -1
100
AcDbLine
 10
195.1799883800186
 20
-210.9519796689167
 11
192.7270575704339
 21
-197.1776843532431
  0
LINE
  5
71
100
AcDbEntity
  8
0
  6
ByLayer
 62
  256
370
   -1
100
AcDbLine
 10
173.1474675704341
 20
-195.5531003532431
 11
186.9424376199815
 21
-193.0964877805963
  0
LINE
  5
72
100
AcDbEntity
  8
0
  6
ByLayer
 62
  256
370
   -1
100
AcDbLine
 10
186.9424376199815
 20
-193.0964877805963
 11
189.3953684295663
 21
-206.87078309627
  0
LINE
  5
73
100
AcDbEntity
  8
0
  6
ByLayer
 62
  256
370
   -1
100
AcDbLine
 10
189.3953684295663
 20
-206.87078309627
 11
175.6003983800188
 21
-209.3273956689168
  0
LINE
  5
74
100
AcDbEntity
  8
0
  6
ByLayer
 62
  256
370
   -1
100
AcDbLine
 10
175.6003983800188
 20
-209.3273956689168
 11
173.1474675704341
 21
-195.5531003532431
  0
LINE
  5
75
100
AcDbEntity
  8
0
  6
ByLayer
 62
  256
370
   -1
100
AcDbLine
 10
155.4779575704339
 20
-204.7611083532431
 11
169.2729276199814
 21
-202.3044957805963
  0
LINE
  5
76
100
AcDbEntity
  8
0
  6
ByLayer
 62
  256
370
   -1
100
AcDbLine
 10
169.2729276199814
 20
-202.3044957805963
 11
171.7258584295661
 21
-216.07879109627
  0
LINE
  5
77
100
AcDbEntity
  8
0
  6
ByLayer
 62
  256
370
   -1
100
AcDbLine
 10
171.7258584295661
 20
-216.07879109627
 11
157.9308883800186
 21
-218.5354036689168
  0
LINE
  5
78
100
AcDbEntity
  8
0
  6
ByLayer
 62
  256
370
   -1
100
AcDbLine
 10
157.9308883800186
 20
-218.5354036689168
 11
155.4779575704339
 21
-204.7611083532431
  0
LINE
  5
79
100
AcDbEntity
  8
0
  6
ByLayer
 62
  256
370
   -1
100
AcDbLine
 10
152.178751570434
 20
-186.0499443532432
 11
165.9737216199815
 21
-183.5933317805963
  0
LINE
  5
7A
100
AcDbEntity
  8
0
  6
ByLayer
 62
  256
370
   -1
100
AcDbLine
 10
165.9737216199815
 20
-183.5933317805963
 11
168.4266524295662
 21
-197.36762709627
  0
LINE
  5
7B
100
AcDbEntity
  8
0
  6
ByLayer
 62
  256
370
   -1
100
AcDbLine
 10
168.4266524295662
 20
-197.36762709627
 11
154.6316823800187
 21
-199.8242396689168
  0
LINE
  5
7C
100
AcDbEntity
  8
0
  6
ByLayer
 62
  256
370
   -1
100
AcDbLine
 10
154.6316823800187
 20
-199.8242396689168
 11
152.178751570434
 21
-186.0499443532432
  0
LINE
  5
7D
100
AcDbEntity
  8
0
  6
ByLayer
 62
  256
370
   -1
100
AcDbLine
 10
137.634965570434
 20
-212.984612353243
 11
151.4299356199815
 21
-210.5279997805962
  0
LINE
  5
7E
100
AcDbEntity
  8
0
  6
ByLayer
 62
  256
370
   -1
100
AcDbLine
 10
151.4299356199815
 20
-210.5279997805962
 11
153.8828664295663
 21
-224.3022950962699
  0
LINE
  5
7F
100
AcDbEntity
  8
0
  6
ByLayer
 62
  256
370
   -1
100
AcDbLine
 10
153.8828664295663
 20
-224.3022950962699
 11
140.0878963800187
 21
-226.7589076689167
  0
LINE
  5
80
100
AcDbEntity
  8
0
  6
ByLayer
 62
  256
370
   -1
100
AcDbLine
 10
140.0878963800187
 20
-226.7589076689167
 11
137.634965570434
 21
-212.984612353243
  0
LINE
  5
81
100
AcDbEntity
  8
0
  6
ByLayer
 62
  256
370
   -1
100
AcDbLine
 10
118.4025935704341
 20
-213.3295443532431
 11
132.1975636199816
 21
-210.8729317805963
  0
LINE
  5
82
100
AcDbEntity
  8
0
  6
ByLayer
 62
  256
370
   -1
100
AcDbLine
 10
132.1975636199816
 20
-210.8729317805963
 11
134.6504944295663
 21
-224.64722709627
  0
LINE
  5
83
100
AcDbEntity
  8
0
  6
ByLayer
 62
  256
370
   -1
100
AcDbLine
 10
134.6504944295663
 20
-224.64722709627
 11
120.8555243800188
 21
-227.1038396689168
  0
LINE
  5
84
100
AcDbEntity
  8
0
  6
ByLayer
 62
  256
370
   -1
100
AcDbLine
 10
120.8555243800188
 20
-227.1038396689168
 11
118.4025935704341
 21
-213.3295443532431
  0
LINE
  5
85
100
AcDbEntity
  8
0
  6
ByLayer
 62
  256
370
   -1
100
AcDbLine
 10
115.102625570434
 20
-194.0966643532432
 11
128.8975956199815
 21
-191.6400517805964
  0
LINE
  5
86
100
AcDbEntity
  8
0
  6
ByLayer
 62
  256
370
   -1
100
AcDbLine
 10
128.8975956199815
 20
-191.6400517805964
 11
131.3505264295663
 21
-205.4143470962701
  0
LINE
  5
87
100
AcDbEntity
  8
0
  6
ByLayer
 62
  256
370
   -1
100
AcDbLine
 10
131.3505264295663
 20
-205.4143470962701
 11
117.5555563800187
 21
-207.8709596689169
  0
LINE
  5
88
100
AcDbEntity
  8
0
  6
ByLayer
 62
  256
370
   -1
100
AcDbLine
 10
117.5555563800187
 20
-207.8709596689169
 11
115.102625570434
 21
-194.0966643532432
  0
LINE
  5
89
100
AcDbEntity
  8
0
  6
ByLayer
 62
  256
370
   -1
100
AcDbLine
 10
134.3357595704339
 20
-194.273194353243
 11
148.1307296199814
 21
-191.8165817805962
  0
LINE
  5
8A
100
AcDbEntity
  8
0
  6
ByLayer
 62
  256
370
   -1
100
AcDbLine
 10
148.1307296199814
 20
-191.8165817805962
 11
150.5836604295661
 21
-205.5908770962699
  0
LINE
  5
8B
100
AcDbEntity
  8
0
  6
ByLayer
 62
  256
370
   -1
100
AcDbLine
 10
150.5836604295661
 20
-205.5908770962699
 11
136.7886903800186
 21
-208.0474896689167
  0
LINE
  5
8C
100
AcDbEntity
  8
0
  6
ByLayer
 62
  256
370
   -1
100
AcDbLine
 10
136.7886903800186
 20
-208.0474896689167
 11
134.3357595704339
 21
-194.273194353243
  0
LINE
  5
8D
100
AcDbEntity
  8
0
  6
ByLayer
 62
  256
370
   -1
100
AcDbLine
 10
131.0362995704339
 20
-175.5620303532432
 11
144.8312696199814
 21
-173.1054177805964
  0
LINE
  5
8E
100
AcDbEntity
  8
0
  6
ByLayer
 62
  256
370
   -1
100
AcDbLine
 10
144.8312696199814
 20
-173.1054177805964
 11
147.2842004295662
 21
-186.8797130962701
  0
LINE
  5
8F
100
AcDbEntity
  8
0
  6
ByLayer
 62
  256
370
   -1
100
AcDbLine
 10
147.2842004295662
 20
-186.8797130962701
 11
133.4892303800186
 21
-189.3363256689169
  0
LINE
  5
90
100
AcDbEntity
  8
0
  6
ByLayer
 62
  256
370
   -1
100
AcDbLine
 10
133.4892303800186
 20
-189.3363256689169
 11
131.0362995704339
 21
-175.5620303532432
  0
LINE
  5
91
100
AcDbEntity
  8
0
  6
ByLayer
 62
  256
370
   -1
100
AcDbLine
 10
148.8792915704338
 20
-167.3385263532432
 11
162.6742616199813
 21
-164.8819137805964
  0
LINE
  5
92
100
AcDbEntity
  8
0
  6
ByLayer
 62
  256
370
   -1
100
AcDbLine
 10
162.6742616199813
 20
-164.8819137805964
 11
165.127192429566
 21
-178.65620909627
  0
LINE
  5
93
100
AcDbEntity
  8
0
  6
ByLayer
 62
  256
370
   -1
100
AcDbLine
 10
165.127192429566
 20
-178.65620909627
 11
151.3322223800185
 21
-181.1128216689168
  0
LINE
  5
94
100
AcDbEntity
  8
0
  6
ByLayer
 62
  256
370
   -1
100
AcDbLine
 10
151.3322223800185
 20
-181.1128216689168
 11
148.8792915704338
 21
-167.3385263532432
  0
LINE
  5
95
100
AcDbEntity
  8
0
  6
ByLayer
 62
  256
370
   -1
100
AcDbLine
 10
145.5800855704339
 20
-148.6273623532431
 11
159.3750556199814
 21
-146.1707497805963
  0
LINE
  5
96
100
AcDbEntity
  8
0
  6
ByLayer
 62
  256
370
   -1
100
AcDbLine
 10
159.3750556199814
 20
-146.1707497805963
 11
161.8279864295661
 21
-159.94504509627
  0
LINE
  5
97
100
AcDbEntity
  8
0
  6
ByLayer
 62
  256
370
   -1
100
AcDbLine
 10
161.8279864295661
 20
-159.94504509627
 11
148.0330163800186
 21
-162.4016576689168
  0
LINE
  5
98
100
AcDbEntity
  8
0
  6
ByLayer
 62
  256
370
   -1
100
AcDbLine
 10
148.0330163800186
 20
-162.4016576689168
 11
145.5800855704339
 21
-148.6273623532431
  0
LINE
  5
99
100
AcDbEntity
  8
0
  6
ByLayer
 62
  256
370
   -1
100
AcDbLine
 10
127.737093570434
 20
-156.8506123532431
 11
141.5320636199815
 21
-154.3939997805963
  0
LINE
  5
9A
100
AcDbEntity
  8
0
  6
ByLayer
 62
  256
370
   -1
100
AcDbLine
 10
141.5320636199815
 20
-154.3939997805963
 11
143.9849944295663
 21
-168.16829509627
  0
LINE
  5
9B
100
AcDbEntity
  8
0
  6
ByLayer
 62
  256
370
   -1
100
AcDbLine
 10
143.9849944295663
 20
-168.16829509627
 11
130.1900243800187
 21
-170.6249076689168
  0
LINE
  5
9C
100
AcDbEntity
  8
0
  6
ByLayer
 62
  256
370
   -1
100
AcDbLine
 10
130.1900243800187
 20
-170.6249076689168
 11
127.737093570434
 21
-156.8506123532431
  0
LINE
  5
9D
100
AcDbEntity
  8
0
  6
ByLayer
 62
  256
370
   -1
100
AcDbLine
 10
169.8482615704339
 20
-176.8416823532432
 11
183.6432316199814
 21
-174.3850697805964
  0
LINE
  5
9E
100
AcDbEntity
  8
0
  6
ByLayer
 62
  256
370
   -1
100
AcDbLine
 10
183.6432316199814
 20
-174.3850697805964
 11
186.0961624295662
 21
-188.15936509627
  0
LINE
  5
9F
100
AcDbEntity
  8
0
  6
ByLayer
 62
  256
370
   -1
100
AcDbLine
 10
186.0961624295662
 20
-188.15936509627
 11
172.3011923800186
 21
-190.6159776689168
  0
LINE
  5
A0
100
AcDbEntity
  8
0
  6
ByLayer
 62
  256
370
   -1
100
AcDbLine
 10
172.3011923800186
 20
-190.6159776689168
 11
169.8482615704339
 21
-176.8416823532432
  0
LINE
  5
A1
100
AcDbEntity
  8
0
  6
ByLayer
 62
  256
370
   -1
100
AcDbLine
 10
189.4275975704337
 20
-178.4665203532431
 11
203.2225676199812
 21
-176.0099077805963
  0
LINE
  5
A2
100
AcDbEntity
  8
0
  6
ByLayer
 62
  256
370
   -1
100
AcDbLine
 10
203.2225676199812
 20
-176.0099077805963
 11
205.6754984295659
 21
-189.78420309627
  0
LINE
  5
A3
100
AcDbEntity
  8
0
  6
ByLayer
 62
  256
370
   -1
100
AcDbLine
 10
205.6754984295659
 20
-189.78420309627
 11
191.8805283800184
 21
-192.2408156689168
  0
LINE
  5
A4
100
AcDbEntity
  8
0
  6
ByLayer
 62
  256
370
   -1
100
AcDbLine
 10
191.8805283800184
 20
-192.2408156689168
 11
189.4275975704337
 21
-178.4665203532431
  0
LINE
  5
A5
100
AcDbEntity
  8
0
  6
ByLayer
 62
  256
370
   -1
100
AcDbLine
 10
208.6599695704339
 20
-178.1215883532431
 11
222.4549396199814
 21
-175.6649757805963
  0
LINE
  5
A6
100
AcDbEntity
  8
0
  6
ByLayer
 62
  256
370
   -1
100
AcDbLine
 10
222.4549396199814
 20
-175.6649757805963
 11
224.9078704295661
 21
-189.43927109627
  0
LINE
  5
A7
100
AcDbEntity
  8
0
  6
ByLayer
 62
  256
370
   -1
100
AcDbLine
 10
224.9078704295661
 20
-189.43927109627
 11
211.1129003800186
 21
-191.8958836689168
  0
LINE
  5
A8
100
AcDbEntity
  8
0
  6
ByLayer
 62
  256
370
   -1
100
AcDbLine
 10
211.1129003800186
 20
-191.8958836689168
 11
208.6599695704339
 21
-178.1215883532431
  0
LINE
  5
A9
100
AcDbEntity
  8
0
  6
ByLayer
 62
  256
370
   -1
100
AcDbLine
 10
205.360763570434
 20
-159.4101703532432
 11
219.1557336199814
 21
-156.9535577805964
  0
LINE
  5
AA
100
AcDbEntity
  8
0
  6
ByLayer
 62
  256
370
   -1
100
AcDbLine
 10
219.1557336199814
 20
-156.9535577805964
 11
221.6086644295662
 21
-170.72785309627
  0
LINE
  5
AB
100
AcDbEntity
  8
0
  6
ByLayer
 62
  256
370
   -1
100
AcDbLine
 10
221.6086644295662
 20
-170.72785309627
 11
207.8136943800187
 21
-173.1844656689168
  0
LINE
  5
AC
100
AcDbEntity
  8
0
  6
ByLayer
 62
  256
370
   -1
100
AcDbLine
 10
207.8136943800187
 20
-173.1844656689168
 11
205.360763570434
 21
-159.4101703532432
  0
LINE
  5
AD
100
AcDbEntity
  8
0
  6
ByLayer
 62
  256
370
   -1
100
AcDbLine
 10
186.128391570434
 20
-159.7551023532431
 11
199.9233616199815
 21
-157.2984897805963
  0
LINE
  5
AE
100
AcDbEntity
  8
0
  6
ByLayer
 62
  256
370
   -1
100
AcDbLine
 10
199.9233616199815
 20
-157.2984897805963
 11
202.3762924295663
 21
-171.07278509627
  0
LINE
  5
AF
100
AcDbEntity
  8
0
  6
ByLayer
 62
  256
370
   -1
100
AcDbLine
 10
202.3762924295663
 20
-171.07278509627
 11
188.5813223800187
 21
-173.5293976689168
  0
LINE
  5
B0
100
AcDbEntity
  8
0
  6
ByLayer
 62
  256
370
   -1
100
AcDbLine
 10
188.5813223800187
 20
-173.5293976689168
 11
186.128391570434
 21
-159.7551023532431
  0
LINE
  5
B1
100
AcDbEntity
  8
0
  6
ByLayer
 62
  256
370
   -1
100
AcDbLine
 10
166.548801570434
 20
-158.1305183532431
 11
180.3437716199815
 21
-155.6739057805963
  0
LINE
  5
B2
100
AcDbEntity
  8
0
  6
ByLayer
 62
  256
370
   -1
100
AcDbLine
 10
180.3437716199815
 20
-155.6739057805963
 11
182.7967024295662
 21
-169.44820109627
  0
LINE
  5
B3
100
AcDbEntity
  8
0
  6
ByLayer
 62
  256
370
   -1
100
AcDbLine
 10
182.7967024295662
 20
-169.44820109627
 11
169.0017323800187
 21
-171.9048136689168
  0
LINE
  5
B4
100
AcDbEntity
  8
0
  6
ByLayer
 62
  256
370
   -1
100
AcDbLine
 10
169.0017323800187
 20
-171.9048136689168
 11
166.548801570434
 21
-158.1305183532431
  0
LINE
  5
B5
100
AcDbEntity
  8
0
  6
ByLayer
 62
  256
370
   -1
100
AcDbLine
 10
163.2495955704338
 20
-139.4191003532431
 11
177.0445656199813
 21
-136.9624877805963
  0
LINE
  5
B6
100
AcDbEntity
  8
0
  6
ByLayer
 62
  256
370
   -1
100
AcDbLine
 10
177.0445656199813
 20
-136.9624877805963
 11
179.4974964295661
 21
-150.73678309627
  0
LINE
  5
B7
100
AcDbEntity
  8
0
  6
ByLayer
 62
  256
370
   -1
100
AcDbLine
 10
179.4974964295661
 20
-150.73678309627
 11
165.7025263800185
 21
-153.1933956689168
  0
LINE
  5
B8
100
AcDbEntity
  8
0
  6
ByLayer
 62
  256
370
   -1
100
AcDbLine
 10
165.7025263800185
 20
-153.1933956689168
 11
163.2495955704338
 21
-139.4191003532431
  0
LINE
  5
B9
100
AcDbEntity
  8
0
  6
ByLayer
 62
  256
370
   -1
100
AcDbLine
 10
182.8291855704339
 20
-141.0439383532432
 11
196.6241556199814
 21
-138.5873257805964
  0
LINE
  5
BA
100
AcDbEntity
  8
0
  6
ByLayer
 62
  256
370
   -1
100
AcDbLine
 10
196.6241556199814
 20
-138.5873257805964
 11
199.0770864295661
 21
-152.3616210962701
  0
LINE
  5
BB
100
AcDbEntity
  8
0
  6
ByLayer
 62
  256
370
   -1
100
AcDbLine
 10
199.0770864295661
 20
-152.3616210962701
 11
185.2821163800186
 21
-154.8182336689169
  0
LINE
  5
BC
100
AcDbEntity
  8
0
  6
ByLayer
 62
  256
370
   -1
100
AcDbLine
 10
185.2821163800186
 20
-154.8182336689169
 11
182.8291855704339
 21
-141.0439383532432
  0
LINE
  5
BD
100
AcDbEntity
  8
0
  6
ByLayer
 62
  256
370
   -1
100
AcDbLine
 10
202.061303570434
 20
-140.6990063532431
 11
215.8562736199815
 21
-138.2423937805963
  0
LINE
  5
BE
100
AcDbEntity
  8
0
  6
ByLayer
 62
  256
370
   -1
100
AcDbLine
 10
215.8562736199815
 20
-138.2423937805963
 11
218.3092044295663
 21
-152.01668909627
  0
LINE
  5
BF
100
AcDbEntity
  8
0
  6
ByLayer
 62
  256
370
   -1
100
AcDbLine
 10
218.3092044295663
 20
-152.01668909627
 11
204.5142343800187
 21
-154.4733016689168
  0
LINE
  5
C0
100
AcDbEntity
  8
0
  6
ByLayer
 62
  256
370
   -1
100
AcDbLine
 10
204.5142343800187
 20
-154.4733016689168
 11
202.061303570434
 21
-140.6990063532431
  0
LINE
  5
C1
100
AcDbEntity
  8
0
  6
ByLayer
 62
  256
370
   -1
100
AcDbLine
 10
-1.986552276399991
 20
-194.3825293719799
 11
11.80843492320251
 21
-196.8390456375077
  0
LINE
  5
C2
100
AcDbEntity
  8
0
  6
ByLayer
 62
  256
370
   -1
100
AcDbLine
 10
11.80843492320251
 20
-196.8390456375077
 11
9.355600276399741
 21
-210.6133580775333
  0
LINE
  5
C3
100
AcDbEntity
  8
0
  6
ByLayer
 62
  256
370
   -1
100
AcDbLine
 10
9.355600276399741
 20
-210.6133580775333
 11
-4.439386923202775
 21
-208.1568418120054
  0
LINE
  5
C4
100
AcDbEntity
  8
0
  6
ByLayer
 62
  256
370
   -1
100
AcDbLine
 10
-4.439386923202775
 20
-208.1568418120054
 11
-1.986552276399991
 21
-194.3825293719799
  0
LINE
  5
C5
100
AcDbEntity
  8
0
  6
ByLayer
 62
  256
370
   -1
100
AcDbLine
 10
17.24581972360018
 20
-194.7272073719798
 11
31.04080692320268
 21
-197.1837236375077
  0
LINE
  5
C6
100
AcDbEntity
  8
0
  6
ByLayer
 62
  256
370
   -1
100
AcDbLine
 10
31.04080692320268
 20
-197.1837236375077
 11
28.5879722763999
 21
-210.9580360775333
  0
LINE
  5
C7
100
AcDbEntity
  8
0
  6
ByLayer
 62
  256
370
   -1
100
AcDbLine
 10
28.5879722763999
 20
-210.9580360775333
 11
14.79298507679739
 21
-208.5015198120053
  0
LINE
  5
C8
100
AcDbEntity
  8
0
  6
ByLayer
 62
  256
370
   -1
100
AcDbLine
 10
14.79298507679739
 20
-208.5015198120053
 11
17.24581972360018
 21
-194.7272073719798
  0
LINE
  5
C9
100
AcDbEntity
  8
0
  6
ByLayer
 62
  256
370
   -1
100
AcDbLine
 10
36.82540972360023
 20
-193.1026233719798
 11
50.62039692320273
 21
-195.5591396375076
  0
LINE
  5
CA
100
AcDbEntity
  8
0
  6
ByLayer
 62
  256
370
   -1
100
AcDbLine
 10
50.62039692320273
 20
-195.5591396375076
 11
48.16756227639996
 21
-209.3334520775332
  0
LINE
  5
CB
100
AcDbEntity
  8
0
  6
ByLayer
 62
  256
370
   -1
100
AcDbLine
 10
48.16756227639996
 20
-209.3334520775332
 11
34.37257507679745
 21
-206.8769358120053
  0
LINE
  5
CC
100
AcDbEntity
  8
0
  6
ByLayer
 62
  256
370
   -1
100
AcDbLine
 10
34.37257507679745
 20
-206.8769358120053
 11
36.82540972360023
 21
-193.1026233719798
  0
LINE
  5
CD
100
AcDbEntity
  8
0
  6
ByLayer
 62
  256
370
   -1
100
AcDbLine
 10
54.49466572359991
 20
-202.3106313719798
 11
68.28965292320241
 21
-204.7671476375077
  0
LINE
  5
CE
100
AcDbEntity
  8
0
  6
ByLayer
 62
  256
370
   -1
100
AcDbLine
 10
68.28965292320241
 20
-204.7671476375077
 11
65.83681827639964
 21
-218.5414600775333
  0
LINE
  5
CF
100
AcDbEntity
  8
0
  6
ByLayer
 62
  256
370
   -1
100
AcDbLine
 10
65.83681827639964
 20
-218.5414600775333
 11
52.04183107679712
 21
-216.0849438120054
  0
LINE
  5
D0
100
AcDbEntity
  8
0
  6
ByLayer
 62
  256
370
   -1
100
AcDbLine
 10
52.04183107679712
 20
-216.0849438120054
 11
54.49466572359991
 21
-202.3106313719798
  0
LINE
  5
D1
100
AcDbEntity
  8
0
  6
ByLayer
 62
  256
370
   -1
100
AcDbLine
 10
72.3376577236
 20
-210.5341353719799
 11
86.13264492320251
 21
-212.9906516375077
  0
LINE
  5
D2
100
AcDbEntity
  8
0
  6
ByLayer
 62
  256
370
   -1
100
AcDbLine
 10
86.13264492320251
 20
-212.9906516375077
 11
83.67981027639973
 21
-226.7649640775333
  0
LINE
  5
D3
100
AcDbEntity
  8
0
  6
ByLayer
 62
  256
370
   -1
100
AcDbLine
 10
83.67981027639973
 20
-226.7649640775333
 11
69.88482307679722
 21
-224.3084478120054
  0
LINE
  5
D4
100
AcDbEntity
  8
0
  6
ByLayer
 62
  256
370
   -1
100
AcDbLine
 10
69.88482307679722
 20
-224.3084478120054
 11
72.3376577236
 21
-210.5341353719799
  0
LINE
  5
D5
100
AcDbEntity
  8
0
  6
ByLayer
 62
  256
370
   -1
100
AcDbLine
 10
91.57002972360017
 20
-210.8790673719797
 11
105.3650169232027
 21
-213.3355836375076
  0
LINE
  5
D6
100
AcDbEntity
  8
0
  6
ByLayer
 62
  256
370
   -1
100
AcDbLine
 10
105.3650169232027
 20
-213.3355836375076
 11
102.9121822763999
 21
-227.1098960775332
  0
LINE
  5
D7
100
AcDbEntity
  8
0
  6
ByLayer
 62
  256
370
   -1
100
AcDbLine
 10
102.9121822763999
 20
-227.1098960775332
 11
89.11719507679739
 21
-224.6533798120053
  0
LINE
  5
D8
100
AcDbEntity
  8
0
  6
ByLayer
 62
  256
370
   -1
100
AcDbLine
 10
89.11719507679739
 20
-224.6533798120053
 11
91.57002972360017
 21
-210.8790673719797
  0
LINE
  5
D9
100
AcDbEntity
  8
0
  6
ByLayer
 62
  256
370
   -1
100
AcDbLine
 10
94.86999772360021
 20
-191.6461873719798
 11
108.6649849232027
 21
-194.1027036375077
  0
LINE
  5
DA
100
AcDbEntity
  8
0
  6
ByLayer
 62
  256
370
   -1
100
AcDbLine
 10
108.6649849232027
 20
-194.1027036375077
 11
106.2121502763999
 21
-207.8770160775333
  0
LINE
  5
DB
100
AcDbEntity
  8
0
  6
ByLayer
 62
  256
370
   -1
100
AcDbLine
 10
106.2121502763999
 20
-207.8770160775333
 11
92.41716307679742
 21
-205.4204998120054
  0
LINE
  5
DC
100
AcDbEntity
  8
0
  6
ByLayer
 62
  256
370
   -1
100
AcDbLine
 10
92.41716307679742
 20
-205.4204998120054
 11
94.86999772360021
 21
-191.6461873719798
  0
LINE
  5
DD
100
AcDbEntity
  8
0
  6
ByLayer
 62
  256
370
   -1
100
AcDbLine
 10
75.63711772359996
 20
-191.8227173719798
 11
89.43210492320246
 21
-194.2792336375076
  0
LINE
  5
DE
100
AcDbEntity
  8
0
  6
ByLayer
 62
  256
370
   -1
100
AcDbLine
 10
89.43210492320246
 20
-194.2792336375076
 11
86.97927027639969
 21
-208.0535460775332
  0
LINE
  5
DF
100
AcDbEntity
  8
0
  6
ByLayer
 62
  256
370
   -1
100
AcDbLine
 10
86.97927027639969
 20
-208.0535460775332
 11
73.18428307679717
 21
-205.5970298120053
  0
LINE
  5
E0
100
AcDbEntity
  8
0
  6
ByLayer
 62
  256
370
   -1
100
AcDbLine
 10
73.18428307679717
 20
-205.5970298120053
 11
75.63711772359996
 21
-191.8227173719798
  0
LINE
  5
E1
100
AcDbEntity
  8
0
  6
ByLayer
 62
  256
370
   -1
100
AcDbLine
 10
78.9363237236001
 20
-173.1115533719799
 11
92.7313109232026
 21
-175.5680696375077
  0
LINE
  5
E2
100
AcDbEntity
  8
0
  6
ByLayer
 62
  256
370
   -1
100
AcDbLine
 10
92.7313109232026
 20
-175.5680696375077
 11
90.27847627639983
 21
-189.3423820775333
  0
LINE
  5
E3
100
AcDbEntity
  8
0
  6
ByLayer
 62
  256
370
   -1
100
AcDbLine
 10
90.27847627639983
 20
-189.3423820775333
 11
76.48348907679731
 21
-186.8858658120054
  0
LINE
  5
E4
100
AcDbEntity
  8
0
  6
ByLayer
 62
  256
370
   -1
100
AcDbLine
 10
76.48348907679731
 20
-186.8858658120054
 11
78.9363237236001
 21
-173.1115533719799
  0
LINE
  5
E5
100
AcDbEntity
  8
0
  6
ByLayer
 62
  256
370
   -1
100
AcDbLine
 10
82.23578372360005
 20
-154.4001353719799
 11
96.03077092320255
 21
-156.8566516375077
  0
LINE
  5
E6
100
AcDbEntity
  8
0
  6
ByLayer
 62
  256
370
   -1
100
AcDbLine
 10
96.03077092320255
 20
-156.8566516375077
 11
93.57793627639978
 21
-170.6309640775333
  0
LINE
  5
E7
100
AcDbEntity
  8
0
  6
ByLayer
 62
  256
370
   -1
100
AcDbLine
 10
93.57793627639978
 20
-170.6309640775333
 11
79.78294907679727
 21
-168.1744478120054
  0
LINE
  5
E8
100
AcDbEntity
  8
0
  6
ByLayer
 62
  256
370
   -1
100
AcDbLine
 10
79.78294907679727
 20
-168.1744478120054
 11
82.23578372360005
 21
-154.4001353719799
  0
LINE
  5
E9
100
AcDbEntity
  8
0
  6
ByLayer
 62
  256
370
   -1
100
AcDbLine
 10
64.39253772360014
 20
-146.1768853719799
 11
78.18752492320264
 21
-148.6334016375077
  0
LINE
  5
EA
100
AcDbEntity
  8
0
  6
ByLayer
 62
  256
370
   -1
100
AcDbLine
 10
78.18752492320264
 20
-148.6334016375077
 11
75.73469027639987
 21
-162.4077140775333
  0
LINE
  5
EB
100
AcDbEntity
  8
0
  6
ByLayer
 62
  256
370
   -1
100
AcDbLine
 10
75.73469027639987
 20
-162.4077140775333
 11
61.93970307679736
 21
-159.9511978120054
  0
LINE
  5
EC
100
AcDbEntity
  8
0
  6
ByLayer
 62
  256
370
   -1
100
AcDbLine
 10
61.93970307679736
 20
-159.9511978120054
 11
64.39253772360014
 21
-146.1768853719799
  0
LINE
  5
ED
100
AcDbEntity
  8
0
  6
ByLayer
 62
  256
370
   -1
100
AcDbLine
 10
61.0933317236
 20
-164.8880493719798
 11
74.8883189232025
 21
-167.3445656375077
  0
LINE
  5
EE
100
AcDbEntity
  8
0
  6
ByLayer
 62
  256
370
   -1
100
AcDbLine
 10
74.8883189232025
 20
-167.3445656375077
 11
72.43548427639973
 21
-181.1188780775333
  0
LINE
  5
EF
100
AcDbEntity
  8
0
  6
ByLayer
 62
  256
370
   -1
100
AcDbLine
 10
72.43548427639973
 20
-181.1188780775333
 11
58.64049707679722
 21
-178.6623618120053
  0
LINE
  5
F0
100
AcDbEntity
  8
0
  6
ByLayer
 62
  256
370
   -1
100
AcDbLine
 10
58.64049707679722
 20
-178.6623618120053
 11
61.0933317236
 21
-164.8880493719798
  0
LINE
  5
F1
100
AcDbEntity
  8
0
  6
ByLayer
 62
  256
370
   -1
100
AcDbLine
 10
57.79412572360009
 20
-183.5994673719798
 11
71.58911292320259
 21
-186.0559836375076
  0
LINE
  5
F2
100
AcDbEntity
  8
0
  6
ByLayer
 62
  256
370
   -1
100
AcDbLine
 10
71.58911292320259
 20
-186.0559836375076
 11
69.13627827639982
 21
-199.8302960775332
  0
LINE
  5
F3
100
AcDbEntity
  8
0
  6
ByLayer
 62
  256
370
   -1
100
AcDbLine
 10
69.13627827639982
 20
-199.8302960775332
 11
55.3412910767973
 21
-197.3737798120053
  0
LINE
  5
F4
100
AcDbEntity
  8
0
  6
ByLayer
 62
  256
370
   -1
100
AcDbLine
 10
55.3412910767973
 20
-197.3737798120053
 11
57.79412572360009
 21
-183.5994673719798
  0
LINE
  5
F5
100
AcDbEntity
  8
0
  6
ByLayer
 62
  256
370
   -1
100
AcDbLine
 10
46.72328172360001
 20
-136.9686233719798
 11
60.51826892320251
 21
-139.4251396375076
  0
LINE
  5
F6
100
AcDbEntity
  8
0
  6
ByLayer
 62
  256
370
   -1
100
AcDbLine
 10
60.51826892320251
 20
-139.4251396375076
 11
58.06543427639973
 21
-153.1994520775332
  0
LINE
  5
F7
100
AcDbEntity
  8
0
  6
ByLayer
 62
  256
370
   -1
100
AcDbLine
 10
58.06543427639973
 20
-153.1994520775332
 11
44.27044707679723
 21
-150.7429358120053
  0
LINE
  5
F8
100
AcDbEntity
  8
0
  6
ByLayer
 62
  256
370
   -1
100
AcDbLine
 10
44.27044707679723
 20
-150.7429358120053
 11
46.72328172360001
 21
-136.9686233719798
  0
LINE
  5
F9
100
AcDbEntity
  8
0
  6
ByLayer
 62
  256
370
   -1
100
AcDbLine
 10
43.42382172360006
 20
-155.6800413719797
 11
57.21880892320256
 21
-158.1365576375076
  0
LINE
  5
FA
100
AcDbEntity
  8
0
  6
ByLayer
 62
  256
370
   -1
100
AcDbLine
 10
57.21880892320256
 20
-158.1365576375076
 11
54.76597427639978
 21
-171.9108700775332
  0
LINE
  5
FB
100
AcDbEntity
  8
0
  6
ByLayer
 62
  256
370
   -1
100
AcDbLine
 10
54.76597427639978
 20
-171.9108700775332
 11
40.97098707679727
 21
-169.4543538120053
  0
LINE
  5
FC
100
AcDbEntity
  8
0
  6
ByLayer
 62
  256
370
   -1
100
AcDbLine
 10
40.97098707679727
 20
-169.4543538120053
 11
43.42382172360006
 21
-155.6800413719797
  0
LINE
  5
FD
100
AcDbEntity
  8
0
  6
ByLayer
 62
  256
370
   -1
100
AcDbLine
 10
40.12461572359992
 20
-174.3912053719798
 11
53.91960292320242
 21
-176.8477216375077
  0
LINE
  5
FE
100
AcDbEntity
  8
0
  6
ByLayer
 62
  256
370
   -1
100
AcDbLine
 10
53.91960292320242
 20
-176.8477216375077
 11
51.46676827639964
 21
-190.6220340775332
  0
LINE
  5
FF
100
AcDbEntity
  8
0
  6
ByLayer
 62
  256
370
   -1
100
AcDbLine
 10
51.46676827639964
 20
-190.6220340775332
 11
37.67178107679713
 21
-188.1655178120053
  0
LINE
  5
100
100
AcDbEntity
  8
0
  6
ByLayer
 62
  256
370
   -1
100
AcDbLine
 10
37.67178107679713
 20
-188.1655178120053
 11
40.12461572359992
 21
-174.3912053719798
  0
LINE
  5
101
100
AcDbEntity
  8
0
  6
ByLayer
 62
  256
370
   -1
100
AcDbLine
 10
20.54477172360028
 20
-176.0160433719799
 11
34.33975892320278
 21
-178.4725596375077
  0
LINE
  5
102
100
AcDbEntity
  8
0
  6
ByLayer
 62
  256
370
   -1
100
AcDbLine
 10
34.33975892320278
 20
-178.4725596375077
 11
31.88692427639999
 21
-192.2468720775333
  0
LINE
  5
103
100
AcDbEntity
  8
0
  6
ByLayer
 62
  256
370
   -1
100
AcDbLine
 10
31.88692427639999
 20
-192.2468720775333
 11
18.09193707679749
 21
-189.7903558120054
  0
LINE
  5
104
100
AcDbEntity
  8
0
  6
ByLayer
 62
  256
370
   -1
100
AcDbLine
 10
18.09193707679749
 20
-189.7903558120054
 11
20.54477172360028
 21
-176.0160433719799
  0
LINE
  5
105
100
AcDbEntity
  8
0
  6
ByLayer
 62
  256
370
   -1
100
AcDbLine
 10
23.84423172360023
 20
-157.3046253719799
 11
37.63921892320273
 21
-159.7611416375077
  0
LINE
  5
106
100
AcDbEntity
  8
0
  6
ByLayer
 62
  256
370
   -1
100
AcDbLine
 10
37.63921892320273
 20
-159.7611416375077
 11
35.18638427639996
 21
-173.5354540775333
  0
LINE
  5
107
100
AcDbEntity
  8
0
  6
ByLayer
 62
  256
370
   -1
100
AcDbLine
 10
35.18638427639996
 20
-173.5354540775333
 11
21.39139707679745
 21
-171.0789378120054
  0
LINE
  5
108
100
AcDbEntity
  8
0
  6
ByLayer
 62
  256
370
   -1
100
AcDbLine
 10
21.39139707679745
 20
-171.0789378120054
 11
23.84423172360023
 21
-157.3046253719799
  0
LINE
  5
109
100
AcDbEntity
  8
0
  6
ByLayer
 62
  256
370
   -1
100
AcDbLine
 10
27.14369172360018
 20
-138.5934613719798
 11
40.93867892320269
 21
-141.0499776375077
  0
LINE
  5
10A
100
AcDbEntity
  8
0
  6
ByLayer
 62
  256
370
   -1
100
AcDbLine
 10
40.93867892320269
 20
-141.0499776375077
 11
38.48584427639991
 21
-154.8242900775333
  0
LINE
  5
10B
100
AcDbEntity
  8
0
  6
ByLayer
 62
  256
370
   -1
100
AcDbLine
 10
38.48584427639991
 20
-154.8242900775333
 11
24.6908570767974
 21
-152.3677738120054
  0
LINE
  5
10C
100
AcDbEntity
  8
0
  6
ByLayer
 62
  256
370
   -1
100
AcDbLine
 10
24.6908570767974
 20
-152.3677738120054
 11
27.14369172360018
 21
-138.5934613719798
  0
LINE
  5
10D
100
AcDbEntity
  8
0
  6
ByLayer
 62
  256
370
   -1
100
AcDbLine
 10
7.911319723600016
 20
-138.2485293719799
 11
21.70630692320252
 21
-140.7050456375077
  0
LINE
  5
10E
100
AcDbEntity
  8
0
  6
ByLayer
 62
  256
370
   -1
100
AcDbLine
 10
21.70630692320252
 20
-140.7050456375077
 11
19.25347227639974
 21
-154.4793580775333
  0
LINE
  5
10F
100
AcDbEntity
  8
0
  6
ByLayer
 62
  256
370
   -1
100
AcDbLine
 10
19.25347227639974
 20
-154.4793580775333
 11
5.458485076797231
 21
-152.0228418120054
  0
LINE
  5
110
100
AcDbEntity
  8
0
  6
ByLayer
 62
  256
370
   -1
100
AcDbLine
 10
5.458485076797231
 20
-152.0228418120054
 11
7.911319723600016
 21
-138.2485293719799
  0
LINE
  5
111
100
AcDbEntity
  8
0
  6
ByLayer
 62
  256
370
   -1
100
AcDbLine
 10
4.612113723600103
 20
-156.9596933719798
 11
18.40710092320261
 21
-159.4162096375077
  0
LINE
  5
112
100
AcDbEntity
  8
0
  6
ByLayer
 62
  256
370
   -1
100
AcDbLine
 10
18.40710092320261
 20
-159.4162096375077
 11
15.95426627639984
 21
-173.1905220775332
  0
LINE
  5
113
100
AcDbEntity
  8
0
  6
ByLayer
 62
  256
370
   -1
100
AcDbLine
 10
15.95426627639984
 20
-173.1905220775332
 11
2.159279076797318
 21
-170.7340058120053
  0
LINE
  5
114
100
AcDbEntity
  8
0
  6
ByLayer
 62
  256
370
   -1
100
AcDbLine
 10
2.159279076797318
 20
-170.7340058120053
 11
4.612113723600103
 21
-156.9596933719798
  0
LINE
  5
115
100
AcDbEntity
  8
0
  6
ByLayer
 62
  256
370
   -1
100
AcDbLine
 10
1.31290772360019
 20
-175.6711113719798
 11
15.10789492320269
 21
-178.1276276375076
  0
LINE
  5
116
100
AcDbEntity
  8
0
  6
ByLayer
 62
  256
370
   -1
100
AcDbLine
 10
15.10789492320269
 20
-178.1276276375076
 11
12.65506027639992
 21
-191.9019400775332
  0
LINE
  5
117
100
AcDbEntity
  8
0
  6
ByLayer
 62
  256
370
   -1
100
AcDbLine
 10
12.65506027639992
 20
-191.9019400775332
 11
-1.139926923202594
 21
-189.4454238120053
  0
LINE
  5
118
100
AcDbEntity
  8
0
  6
ByLayer
 62
  256
370
   -1
100
AcDbLine
 10
-1.139926923202594
 20
-189.4454238120053
 11
1.31290772360019
 21
-175.6711113719798
  0
SPLINE
  5
119
100
AcDbEntity
  8
0
  6
ByLayer
 62
  256
370
   -1
100
AcDbSpline
210
0
220
0
230
0
 70
    8
 71
    2
 72
    6
 73
    3
 74
    0
 42
1e-007
 43
1e-007
 40
0
 40
0
 40
0
 40
1
 40
1
 40
1
 10
221.9171115360221
 20
-138.1662959137629
 30
0
 10
221.2415365626722
 20
-132.571064662409
 30
0
 10
215.7040840134624
 20
-132.4467508244215
 30
0
  0
SPLINE
  5
11A
100
AcDbEntity
  8
0
  6
ByLayer
 62
  256
370
   -1
100
AcDbSpline
210
0
220
0
230
0
 70
    8
 71
    2
 72
    6
 73
    3
 74
    0
 42
1e-007
 43
1e-007
 40
0
 40
0
 40
0
 40
1
 40
1
 40
1
 10
156.0217967363529
 20
-228.3327328695476
 30
0
 10
150.4477003861178
 20
-229.7927413248957
 30
0
 10
144.6884141583041
 20
-229.7256432360647
 30
0
  0
SPLINE
  5
11B
100
AcDbEntity
  8
0
  6
ByLayer
 62
  256
370
   -1
100
AcDbSpline
210
0
220
0
230
0
 70
    8
 71
    2
 72
    6
 73
    3
 74
    0
 42
1e-007
 43
1e-007
 40
0
 40
0
 40
0
 40
1
 40
1
 40
1
 10
1.60291386397779
 20
-138.1662959137629
 30
0
 10
2.278488837327643
 20
-132.571064662409
 30
0
 10
7.815941386537531
 20
-132.4467508244215
 30
0
  0
LINE
  5
11C
100
AcDbEntity
  8
0
  6
ByLayer
 62
  256
370
   -1
100
AcDbLine
 10
221.9171115360221
 20
-138.1662959137629
 11
233.567446673503
 21
-204.2389847488572
  0
LINE
  5
11D
100
AcDbEntity
  8
0
  6
ByLayer
 62
  256
370
   -1
100
AcDbLine
 10
78.83161124169578
 20
-229.7256432360647
 11
144.6884141583041
 21
-229.7256432360647
  0
LINE
  5
11E
100
AcDbEntity
  8
0
  6
ByLayer
 62
  256
370
   -1
100
AcDbLine
 10
1.60291386397779
 20
-138.1662959137629
 11
-10.04742127350315
 21
-204.2389847488572
  0
LINE
  5
11F
100
AcDbEntity
  8
0
  6
ByLayer
 62
  256
370
   -1
100
AcDbLine
 10
7.815941386537531
 20
-132.4467508244215
 11
101.605039736163
 21
-132.4467508244215
  0
LINE
  5
120
100
AcDbEntity
  8
0
  6
ByLayer
 62
  256
370
   -1
100
AcDbLine
 10
121.9883662638372
 20
-132.4467508244215
 11
143.1204802609722
 21
-132.4467508244215
  0
LINE
  5
121
100
AcDbEntity
  8
0
  6
ByLayer
 62
  256
370
   -1
100
AcDbLine
 10
161.9556660933326
 20
-132.4467508244215
 11
215.7040840134624
 21
-132.4467508244215
  0
LINE
  5
122
100
AcDbEntity
  8
0
  6
ByLayer
 62
  256
370
   -1
100
AcDbLine
 10
143.1204802609722
 20
-132.4467508244215
 11
161.9556660933326
 21
-132.4467508244215
  0
CIRCLE
  5
123
100
AcDbEntity
  8
0
  6
ByLayer
 62
  256
370
   -1
100
AcDbCircle
 10
-0.3347106878143791
 20
-163.3648934904827
 40
1.2
  0
CIRCLE
  5
124
100
AcDbEntity
  8
0
  6
ByLayer
 62
  256
370
   -1
100
AcDbCircle
 10
80.18043399999999
 20
-135.3256946019883
 40
1.2
  0
CIRCLE
  5
125
100
AcDbEntity
  8
0
  6
ByLayer
 62
  256
370
   -1
100
AcDbCircle
 10
223.8547360878143
 20
-163.3648934904827
 40
1.2
  0
CIRCLE
  5
126
100
AcDbEntity
  8
0
  6
ByLayer
 62
  256
370
   -1
100
AcDbCircle
 10
159.2133217762794
 20
-225.198130207906
 40
1.2
  0
CIRCLE
  5
127
100
AcDbEntity
  8
0
  6
ByLayer
 62
  256
370
   -1
100
AcDbCircle
 10
64.30670362372047
 20
-225.198130207906
 40
1.2
  0
CIRCLE
  5
128
100
AcDbEntity
  8
0
  6
ByLayer
 62
  256
370
   -1
100
AcDbCircle
 10
143.3395913999999
 20
-135.3256946019883
 40
1.2
  0
SPLINE
  5
129
100
AcDbEntity
  8
0
  6
ByLayer
 62
  256
370
   -1
100
AcDbSpline
210
0
220
0
230
0
 70
    8
 71
    2
 72
    6
 73
    3
 74
    0
 42
1e-007
 43
1e-007
 40
0
 40
0
 40
0
 40
1
 40
1
 40
1
 10
156.0217967363529
 20
-228.3327328695477
 30
0
 10
150.4477003861178
 20
-229.7927413248958
 30
0
 10
144.6884141583041
 20
-229.7256432360647
 30
0
  0
SPLINE
  5
12A
100
AcDbEntity
  8
0
  6
ByLayer
 62
  256
370
   -1
100
AcDbSpline
210
0
220
0
230
0
 70
    8
 71
    2
 72
    6
 73
    3
 74
    0
 42
1e-007
 43
1e-007
 40
0
 40
0
 40
0
 40
1
 40
1
 40
1
 10
67.49822866364704
 20
-228.3327328695477
 30
0
 10
73.07232501388212
 20
-229.7927413248958
 30
0
 10
78.83161124169578
 20
-229.7256432360647
 30
0
  0
SPLINE
  5
12B
100
AcDbEntity
  8
0
  6
ByLayer
 62
  256
370
   -1
100
AcDbSpline
210
0
220
0
230
0
 70
    8
 71
    2
 72
    6
 73
    3
 74
    0
 42
1e-007
 43
1e-007
 40
0
 40
0
 40
0
 40
1
 40
1
 40
1
 10
-7.147634900349431
 20
-213.2422581654378
 30
0
 10
-11.19856007289142
 20
-211.7134722412752
 30
0
 10
-10.56836309210745
 20
-207.193408486514
 30
0
  0
SPLINE
  5
12C
100
AcDbEntity
  8
0
  6
ByLayer
 62
  256
370
   -1
100
AcDbSpline
210
0
220
0
230
0
 70
    8
 71
    2
 72
    6
 73
    3
 74
    0
 42
1e-007
 43
1e-007
 40
0
 40
0
 40
0
 40
1
 40
1
 40
1
 10
230.6676603003492
 20
-213.2422581654378
 30
0
 10
234.7185854728912
 20
-211.7134722412752
 30
0
 10
234.0883884921072
 20
-207.193408486514
 30
0
  0
LINE
  5
12D
100
AcDbEntity
  8
0
  6
ByLayer
 62
  256
370
   -1
100
AcDbLine
 10
230.3166131667301
 20
-213.3132261687122
 11
156.0217967363527
 21
-228.3327328695477
  0
LINE
  5
12E
100
AcDbEntity
  8
0
  6
ByLayer
 62
  256
370
   -1
100
AcDbLine
 10
-6.796545813825006
 20
-213.3132346499492
 11
67.49822866364704
 21
-228.3327328695477
  0
LINE
  5
12F
100
AcDbEntity
  8
0
  6
ByLayer
 62
  256
370
   -1
100
AcDbLine
 10
233.567446673503
 20
-204.2389847488572
 11
234.0883884921072
 21
-207.193408486514
  0
LINE
  5
130
100
AcDbEntity
  8
0
  6
ByLayer
 62
  256
370
   -1
100
AcDbLine
 10
230.6676603003492
 20
-213.2422581654378
 11
230.3166131667301
 21
-213.3132261687122
  0
LINE
  5
131
100
AcDbEntity
  8
0
  6
ByLayer
 62
  256
370
   -1
100
AcDbLine
 10
-7.147634900349431
 20
-213.2422581654378
 11
-6.796545813825006
 21
-213.3132346499492
  0
LINE
  5
132
100
AcDbEntity
  8
0
  6
ByLayer
 62
  256
370
   -1
100
AcDbLine
 10
-10.04742127350315
 20
-204.2389847488572
 11
-10.56836309210745
 21
-207.193408486514
  0
CIRCLE
  5
133
100
AcDbEntity
  8
0
  6
ByLayer
 62
  256
370
   -1
100
AcDbCircle
 10
191.8522332068804
 20
-135.3256946019883
 40
1.2
  0
SPLINE
  5
134
100
AcDbEntity
  8
0
  6
ByLayer
 62
  256
370
   -1
100
AcDbSpline
210
0
220
0
230
0
 70
    8
 71
    2
 72
    6
 73
    3
 74
    0
 42
1e-007
 43
1e-007
 40
0
 40
0
 40
0
 40
1
 40
1
 40
1
 10
118.8238460680242
 20
-0.9271001628703779
 30
0
 10
119.2544148037481
 20
1.57831283767322
 30
0
 10
121.9883662638372
 20
1.628025570416096
 30
0
  0
SPLINE
  5
135
100
AcDbEntity
  8
0
  6
ByLayer
 62
  256
370
   -1
100
AcDbSpline
210
0
220
0
230
0
 70
    8
 71
    2
 72
    6
 73
    3
 74
    0
 42
1e-007
 43
1e-007
 40
0
 40
0
 40
0
 40
1
 40
1
 40
1
 10
104.769559931976
 20
-0.9271001628703779
 30
0
 10
104.338991196252
 20
1.57831283767322
 30
0
 10
101.605039736163
 20
1.628025570416096
 30
0
  0
LINE
  5
136
100
AcDbEntity
  8
0
  6
ByLayer
 62
  256
370
   -1
100
AcDbLine
 10
121.9883662638372
 20
1.628025570416096
 11
143.1204802609722
 21
1.628025570416096
  0
LINE
  5
137
100
AcDbEntity
  8
0
  6
ByLayer
 62
  256
370
   -1
100
AcDbLine
 10
161.9556660933326
 20
1.628025570416096
 11
215.7040840134624
 21
1.628025570416096
  0
SPLINE
  5
138
100
AcDbEntity
  8
0
  6
ByLayer
 62
  256
370
   -1
100
AcDbSpline
210
0
220
0
230
0
 70
    8
 71
    2
 72
    6
 73
    3
 74
    0
 42
1e-007
 43
1e-007
 40
0
 40
0
 40
0
 40
1
 40
1
 40
1
 10
159.2776851757154
 20
-0.8101212584752808
 30
0
 10
159.4064799539033
 20
1.632948165197714
 30
0
 10
161.9556660933326
 20
1.628025570416096
 30
0
  0
SPLINE
  5
139
100
AcDbEntity
  8
0
  6
ByLayer
 62
  256
370
   -1
100
AcDbSpline
210
0
220
0
230
0
 70
    8
 71
    2
 72
    6
 73
    3
 74
    0
 42
1e-007
 43
1e-007
 40
0
 40
0
 40
0
 40
1
 40
1
 40
1
 10
145.7984611785895
 20
-0.8101212584752808
 30
0
 10
145.6696664004016
 20
1.632948165197714
 30
0
 10
143.1204802609722
 20
1.628025570416096
 30
0
  0
CIRCLE
  5
13A
100
AcDbEntity
  8
0
  6
ByLayer
 62
  256
370
   -1
100
AcDbCircle
 10
80.18043399999999
 20
-1.250918207150679
 40
1.5
  0
CIRCLE
  5
13B
100
AcDbEntity
  8
0
  6
ByLayer
 62
  256
370
   -1
100
AcDbCircle
 10
143.3395913999999
 20
-1.250918207150679
 40
1.5
  0
CIRCLE
  5
13C
100
AcDbEntity
  8
0
  6
ByLayer
 62
  256
370
   -1
100
AcDbCircle
 10
191.8522332068804
 20
-1.250918207150679
 40
1.5
  0
LINE
  5
13D
100
AcDbEntity
  8
0
  6
ByLayer
 62
  256
370
   -1
100
AcDbLine
 10
215.7040840134624
 20
1.628025570416096
 11
215.915931182929
 21
1.628025570416096
  0
LINE
  5
13E
100
AcDbEntity
  8
0
  6
ByLayer
 62
  256
370
   -1
100
AcDbLine
 10
7.604307361961034
 20
1.628025570416096
 11
101.605039736163
 21
1.628025570416096
  0
CIRCLE
  5
13F
100
AcDbEntity
  8
0
  6
ByLayer
 62
  256
370
   -1
100
AcDbCircle
 10
235.0547360878143
 20
-39.29011709564509
 40
1.5
  0
SPLINE
  5
140
100
AcDbEntity
  8
0
  6
ByLayer
 62
  256
370
   -1
100
AcDbSpline
210
0
220
0
230
0
 70
    8
 71
    2
 72
    6
 73
    3
 74
    0
 42
1e-007
 43
1e-007
 40
0
 40
0
 40
0
 40
1
 40
1
 40
1
 10
233.1171115360221
 20
-14.09151951892517
 30
0
 10
232.3791199586652
 20
-8.644447852217382
 30
0
 10
227.3190329085483
 20
-8.389392050402165
 30
0
  0
SPLINE
  5
141
100
AcDbEntity
  8
0
  6
ByLayer
 62
  256
370
   -1
100
AcDbSpline
210
0
220
0
230
0
 70
    8
 71
    2
 72
    6
 73
    3
 74
    0
 42
1e-007
 43
1e-007
 40
0
 40
0
 40
0
 40
1
 40
1
 40
1
 10
241.8676603003492
 20
-89.16748177060009
 30
0
 10
245.9185854728912
 20
-87.63869584643749
 30
0
 10
245.2883884921072
 20
-83.11863209167626
 30
0
  0
LINE
  5
142
100
AcDbEntity
  8
0
  6
ByLayer
 62
  256
370
   -1
100
AcDbLine
 10
233.1171115360221
 20
-14.09151951892517
 11
245.2883884921073
 21
-83.11863209167626
  0
LINE
  5
143
100
AcDbEntity
  8
0
  6
ByLayer
 62
  256
370
   -1
100
AcDbLine
 10
227.3190329085483
 20
-8.389392050402165
 11
241.7096632176759
 21
-89.19942260249036
  0
LINE
  5
144
100
AcDbEntity
  8
0
  6
ByLayer
 62
  256
370
   -1
100
AcDbLine
 10
241.7096632176759
 20
-89.19942260249036
 11
241.8676603003492
 21
-89.16748177060009
  0
CIRCLE
  5
145
100
AcDbEntity
  8
0
  6
ByLayer
 62
  256
370
   -1
100
AcDbCircle
 10
-10.33471068781438
 20
-39.29011709564509
 40
1.5
  0
SPLINE
  5
146
100
AcDbEntity
  8
0
  6
ByLayer
 62
  256
370
   -1
100
AcDbSpline
210
0
220
0
230
0
 70
    8
 71
    2
 72
    6
 73
    3
 74
    0
 42
1e-007
 43
1e-007
 40
0
 40
0
 40
0
 40
1
 40
1
 40
1
 10
-8.428737716441105
 20
-14.09151951892517
 30
0
 10
-7.69074613908424
 20
-8.644447852217382
 30
0
 10
-2.63065908896732
 20
-8.389392050402165
 30
0
  0
LINE
  5
147
100
AcDbEntity
  8
0
  6
ByLayer
 62
  256
370
   -1
100
AcDbLine
 10
-8.397086136022212
 20
-14.09151951892517
 11
-20.56836309210744
 21
-83.11863209167626
  0
SPLINE
  5
148
100
AcDbEntity
  8
0
  6
ByLayer
 62
  256
370
   -1
100
AcDbSpline
210
0
220
0
230
0
 70
    8
 71
    2
 72
    6
 73
    3
 74
    0
 42
1e-007
 43
1e-007
 40
0
 40
0
 40
0
 40
1
 40
1
 40
1
 10
-17.14763490034944
 20
-89.16748177060009
 30
0
 10
-21.19856007289143
 20
-87.63869584643749
 30
0
 10
-20.56836309210744
 20
-83.11863209167626
 30
0
  0
LINE
  5
149
100
AcDbEntity
  8
0
  6
ByLayer
 62
  256
370
   -1
100
AcDbLine
 10
-16.98959578572585
 20
-89.19943109970717
 11
-2.598792014548221
 21
-8.389378653992964
  0
LINE
  5
14A
100
AcDbEntity
  8
0
  6
ByLayer
 62
  256
370
   -1
100
AcDbLine
 10
-16.98959578572585
 20
-89.19943109970717
 11
-17.14763490034944
 21
-89.16748177060009
  0
SPLINE
  5
14B
100
AcDbEntity
  8
0
  6
ByLayer
 62
  256
370
   -1
100
AcDbSpline
210
0
220
0
230
0
 70
    8
 71
    2
 72
    6
 73
    3
 74
    0
 42
1e-007
 43
1e-007
 40
0
 40
0
 40
0
 40
1
 40
1
 40
1
 10
156.0217967363529
 20
-114.2579564747101
 30
0
 10
150.4477003861178
 20
-115.7179649300582
 30
0
 10
144.6884141583041
 20
-115.6508668412271
 30
0
  0
SPLINE
  5
14C
100
AcDbEntity
  8
0
  6
ByLayer
 62
  256
370
   -1
100
AcDbSpline
210
0
220
0
230
0
 70
    8
 71
    2
 72
    6
 73
    3
 74
    0
 42
1e-007
 43
1e-007
 40
0
 40
0
 40
0
 40
1
 40
1
 40
1
 10
67.49822866364704
 20
-114.2579564747101
 30
0
 10
73.07232501388212
 20
-115.7179649300582
 30
0
 10
78.83161124169578
 20
-115.6508668412271
 30
0
  0
LINE
  5
14D
100
AcDbEntity
  8
0
  6
ByLayer
 62
  256
370
   -1
100
AcDbLine
 10
111.8600126999999
 20
-113.311395829919
 11
111.8600126999999
 21
-115.6508668412271
  0
LINE
  5
14E
100
AcDbEntity
  8
0
  6
ByLayer
 62
  256
370
   -1
100
AcDbLine
 10
111.6600126999999
 20
-113.311395829919
 11
111.6600126999999
 21
-115.6508668412271
  0
CIRCLE
  5
14F
100
AcDbEntity
  8
0
  6
ByLayer
 62
  256
370
   -1
100
AcDbCircle
 10
159.2133217762794
 20
-111.1233538130684
 40
1.5
  0
CIRCLE
  5
150
100
AcDbEntity
  8
0
  6
ByLayer
 62
  256
370
   -1
100
AcDbCircle
 10
64.30670362372047
 20
-111.1233538130684
 40
1.5
  0
LINE
  5
151
100
AcDbEntity
  8
0
  6
ByLayer
 62
  256
370
   -1
100
AcDbLine
 10
111.6600126999999
 20
-115.6508668412271
 11
78.83161124169578
 21
-115.6508668412271
  0
LINE
  5
152
100
AcDbEntity
  8
0
  6
ByLayer
 62
  256
370
   -1
100
AcDbLine
 10
111.8600126999999
 20
-115.6508668412271
 11
144.6884141583041
 21
-115.6508668412271
  0
LINE
  5
153
100
AcDbEntity
  8
0
  6
ByLayer
 62
  256
370
   -1
100
AcDbLine
 10
230.3166131667301
 20
-99.23844977387463
 11
156.0217967363527
 21
-114.2579564747101
  0
LINE
  5
154
100
AcDbEntity
  8
0
  6
ByLayer
 62
  256
370
   -1
100
AcDbLine
 10
-6.79654581382502
 20
-99.23845825511162
 11
67.49822866364704
 21
-114.2579564747101
  0
LINE
  5
155
100
AcDbEntity
  8
0
  6
ByLayer
 62
  256
370
   -1
100
AcDbLine
 10
111.8600126999999
 20
-113.311395829919
 11
144.3437717639258
 21
-113.3113191976276
  0
LINE
  5
156
100
AcDbEntity
  8
0
  6
ByLayer
 62
  256
370
   -1
100
AcDbLine
 10
111.6600126999999
 20
-113.3113960651045
 11
79.17712323438592
 21
-113.3114724601653
  0
LINE
  5
157
100
AcDbEntity
  8
0
  6
ByLayer
 62
  256
370
   -1
100
AcDbLine
 10
72.49204467499123
 20
-112.1332593807317
 11
79.17712323438559
 21
-113.3114724601653
  0
SPLINE
  5
158
100
AcDbEntity
  8
0
  6
ByLayer
 62
  256
370
   -1
100
AcDbSpline
210
0
220
0
230
0
 70
    8
 71
    2
 72
    6
 73
    3
 74
    0
 42
1e-007
 43
1e-007
 40
0
 40
0
 40
0
 40
1
 40
1
 40
1
 10
104.769559931976
 20
-125.0018765577079
 30
0
 10
104.338991196252
 20
-122.4964635571643
 30
0
 10
101.605039736163
 20
-122.4467508244215
 30
0
  0
CIRCLE
  5
159
100
AcDbEntity
  8
0
  6
ByLayer
 62
  256
370
   -1
100
AcDbCircle
 10
80.18043399999999
 20
-125.3256946019882
 40
1.5
  0
LINE
  5
15A
100
AcDbEntity
  8
0
  6
ByLayer
 62
  256
370
   -1
100
AcDbLine
 10
7.36934091103268
 20
-122.4641684452398
 11
7.401207985451776
 21
-122.4641550488306
  0
LINE
  5
15B
100
AcDbEntity
  8
0
  6
ByLayer
 62
  256
370
   -1
100
AcDbLine
 10
7.60430736196102
 20
-122.4467508244215
 11
101.605039736163
 21
-122.4467508244215
  0
CIRCLE
  5
15C
100
AcDbEntity
  8
0
  6
ByLayer
 62
  256
370
   -1
100
AcDbCircle
 10
235.0547360878143
 20
-163.3648934904826
 40
1.5
  0
SPLINE
  5
15D
100
AcDbEntity
  8
0
  6
ByLayer
 62
  256
370
   -1
100
AcDbSpline
210
0
220
0
230
0
 70
    8
 71
    2
 72
    6
 73
    3
 74
    0
 42
1e-007
 43
1e-007
 40
0
 40
0
 40
0
 40
1
 40
1
 40
1
 10
233.1171115360221
 20
-138.1662959137627
 30
0
 10
232.3791199586652
 20
-132.7192242470549
 30
0
 10
227.3190329085483
 20
-132.4641684452397
 30
0
  0
SPLINE
  5
15E
100
AcDbEntity
  8
0
  6
ByLayer
 62
  256
370
   -1
100
AcDbSpline
210
0
220
0
230
0
 70
    8
 71
    2
 72
    6
 73
    3
 74
    0
 42
1e-007
 43
1e-007
 40
0
 40
0
 40
0
 40
1
 40
1
 40
1
 10
241.8676603003492
 20
-213.2422581654376
 30
0
 10
245.9185854728912
 20
-211.713472241275
 30
0
 10
245.2883884921072
 20
-207.1934084865138
 30
0
  0
LINE
  5
15F
100
AcDbEntity
  8
0
  6
ByLayer
 62
  256
370
   -1
100
AcDbLine
 10
233.1171115360221
 20
-138.1662959137627
 11
245.2883884921073
 21
-207.1934084865138
  0
LINE
  5
160
100
AcDbEntity
  8
0
  6
ByLayer
 62
  256
370
   -1
100
AcDbLine
 10
227.3190329085483
 20
-132.4641684452397
 11
241.7096632176759
 21
-213.2741989973279
  0
CIRCLE
  5
161
100
AcDbEntity
  8
0
  6
ByLayer
 62
  256
370
   -1
100
AcDbCircle
 10
-10.33471068781438
 20
-163.3648934904826
 40
1.5
  0
SPLINE
  5
162
100
AcDbEntity
  8
0
  6
ByLayer
 62
  256
370
   -1
100
AcDbSpline
210
0
220
0
230
0
 70
    8
 71
    2
 72
    6
 73
    3
 74
    0
 42
1e-007
 43
1e-007
 40
0
 40
0
 40
0
 40
1
 40
1
 40
1
 10
-8.428737716441105
 20
-138.1662959137627
 30
0
 10
-7.69074613908424
 20
-132.7192242470549
 30
0
 10
-2.63065908896732
 20
-132.4641684452397
 30
0
  0
LINE
  5
163
100
AcDbEntity
  8
0
  6
ByLayer
 62
  256
370
   -1
100
AcDbLine
 10
-8.39708613602221
 20
-138.1662959137627
 11
-20.56836309210743
 21
-207.1934084865138
  0
SPLINE
  5
164
100
AcDbEntity
  8
0
  6
ByLayer
 62
  256
370
   -1
100
AcDbSpline
210
0
220
0
230
0
 70
    8
 71
    2
 72
    6
 73
    3
 74
    0
 42
1e-007
 43
1e-007
 40
0
 40
0
 40
0
 40
1
 40
1
 40
1
 10
-17.14763490034943
 20
-213.2422581654376
 30
0
 10
-21.19856007289144
 20
-211.713472241275
 30
0
 10
-20.56836309210743
 20
-207.1934084865138
 30
0
  0
LINE
  5
165
100
AcDbEntity
  8
0
  6
ByLayer
 62
  256
370
   -1
100
AcDbLine
 10
-16.98959578572584
 20
-213.2742074945447
 11
-2.598792014548224
 21
-132.4641550488305
  0
LINE
  5
166
100
AcDbEntity
  8
0
  6
ByLayer
 62
  256
370
   -1
100
AcDbLine
 10
-16.98959578572584
 20
-213.2742074945447
 11
-17.14763490034943
 21
-213.2422581654376
  0
SPLINE
  5
167
100
AcDbEntity
  8
0
  6
ByLayer
 62
  256
370
   -1
100
AcDbSpline
210
0
220
0
230
0
 70
    8
 71
    2
 72
    6
 73
    3
 74
    0
 42
1e-007
 43
1e-007
 40
0
 40
0
 40
0
 40
1
 40
1
 40
1
 10
156.0217967363529
 20
-238.3327328695477
 30
0
 10
150.4477003861178
 20
-239.7927413248958
 30
0
 10
144.6884141583041
 20
-239.7256432360647
 30
0
  0
SPLINE
  5
168
100
AcDbEntity
  8
0
  6
ByLayer
 62
  256
370
   -1
100
AcDbSpline
210
0
220
0
230
0
 70
    8
 71
    2
 72
    6
 73
    3
 74
    0
 42
1e-007
 43
1e-007
 40
0
 40
0
 40
0
 40
1
 40
1
 40
1
 10
67.49822866364704
 20
-238.3327328695477
 30
0
 10
73.07232501388212
 20
-239.7927413248958
 30
0
 10
78.83161124169578
 20
-239.7256432360647
 30
0
  0
LINE
  5
169
100
AcDbEntity
  8
0
  6
ByLayer
 62
  256
370
   -1
100
AcDbLine
 10
111.8600126999999
 20
-237.3861722247566
 11
111.8600126999999
 21
-239.7256432360647
  0
LINE
  5
16A
100
AcDbEntity
  8
0
  6
ByLayer
 62
  256
370
   -1
100
AcDbLine
 10
111.6600126999999
 20
-237.3861722247566
 11
111.6600126999999
 21
-239.7256432360647
  0
CIRCLE
  5
16B
100
AcDbEntity
  8
0
  6
ByLayer
 62
  256
370
   -1
100
AcDbCircle
 10
159.2133217762794
 20
-235.198130207906
 40
1.5
  0
CIRCLE
  5
16C
100
AcDbEntity
  8
0
  6
ByLayer
 62
  256
370
   -1
100
AcDbCircle
 10
64.30670362372047
 20
-235.198130207906
 40
1.5
  0
LINE
  5
16D
100
AcDbEntity
  8
0
  6
ByLayer
 62
  256
370
   -1
100
AcDbLine
 10
111.6600126999999
 20
-239.7256432360647
 11
78.83161124169578
 21
-239.7256432360647
  0
LINE
  5
16E
100
AcDbEntity
  8
0
  6
ByLayer
 62
  256
370
   -1
100
AcDbLine
 10
111.8600126999999
 20
-239.7256432360647
 11
144.6884141583041
 21
-239.7256432360647
  0
LINE
  5
16F
100
AcDbEntity
  8
0
  6
ByLayer
 62
  256
370
   -1
100
AcDbLine
 10
230.3166131667301
 20
-223.3132261687122
 11
156.0217967363527
 21
-238.3327328695477
  0
LINE
  5
170
100
AcDbEntity
  8
0
  6
ByLayer
 62
  256
370
   -1
100
AcDbLine
 10
-6.79654581382502
 20
-223.3132346499492
 11
67.49822866364704
 21
-238.3327328695477
  0
LINE
  5
171
100
AcDbEntity
  8
0
  6
ByLayer
 62
  256
370
   -1
100
AcDbLine
 10
111.8600126999999
 20
-237.3861722247566
 11
144.3437717639258
 21
-237.3860955924652
  0
LINE
  5
172
100
AcDbEntity
  8
0
  6
ByLayer
 62
  256
370
   -1
100
AcDbLine
 10
111.6600126999999
 20
-237.3861724599421
 11
79.17712323438592
 21
-237.3862488550029
  0
SPLINE
  5
173
100
AcDbEntity
  8
0
  6
ByLayer
 62
  256
370
   -1
100
AcDbSpline
210
0
220
0
230
0
 70
    8
 71
    2
 72
    6
 73
    3
 74
    0
 42
1e-007
 43
1e-007
 40
0
 40
0
 40
0
 40
1
 40
1
 40
1
 10
118.8238460680242
 20
-125.001876557708
 30
0
 10
119.2544148037481
 20
-122.4964635571643
 30
0
 10
121.9883662638372
 20
-122.4467508244215
 30
0
  0
LINE
  5
174
100
AcDbEntity
  8
0
  6
ByLayer
 62
  256
370
   -1
100
AcDbLine
 10
121.9883662638372
 20
-122.4467508244215
 11
143.1204802609722
 21
-122.4467508244215
  0
LINE
  5
175
100
AcDbEntity
  8
0
  6
ByLayer
 62
  256
370
   -1
100
AcDbLine
 10
161.9556660933326
 20
-122.4467508244215
 11
215.7040840134624
 21
-122.4467508244215
  0
LINE
  5
176
100
AcDbEntity
  8
0
  6
ByLayer
 62
  256
370
   -1
100
AcDbLine
 10
143.1204802609722
 20
-122.4467508244215
 11
161.9556660933326
 21
-122.4467508244215
  0
CIRCLE
  5
177
100
AcDbEntity
  8
0
  6
ByLayer
 62
  256
370
   -1
100
AcDbCircle
 10
143.3395913999999
 20
-125.3256946019883
 40
1.5
  0
CIRCLE
  5
178
100
AcDbEntity
  8
0
  6
ByLayer
 62
  256
370
   -1
100
AcDbCircle
 10
191.8522332068804
 20
-125.3256946019883
 40
1.5
  0
LINE
  5
179
100
AcDbEntity
  8
0
  6
ByLayer
 62
  256
370
   -1
100
AcDbLine
 10
215.7040840134624
 20
-122.4467508244215
 11
215.915931182929
 21
-122.4467508244215
  0
LINE
  5
17A
100
AcDbEntity
  8
0
  6
ByLayer
 62
  256
370
   -1
100
AcDbLine
 10
176.1444520199703
 20
-126.2965956905622
 11
168.5831896482384
 21
-126.2965956905622
  0
LINE
  5
17B
100
AcDbEntity
  8
0
  6
ByLayer
 62
  256
370
   -1
100
AcDbLine
 10
69.31456451594244
 20
-109.9528717231759
 11
-6.138001745231052
 21
-95.54047296068011
  0
LINE
  5
17C
100
AcDbEntity
  8
0
  6
ByLayer
 62
  256
370
   -1
100
AcDbLine
 10
-6.138001745231172
 20
-95.54047296068008
 11
-6.79654581382502
 21
-99.23845825511162
  0
LINE
  5
17D
100
AcDbEntity
  8
0
  6
ByLayer
 62
  256
370
   -1
100
AcDbLine
 10
72.49204467499135
 20
-112.1332593807318
 11
69.31456451594244
 21
-109.9528717231759
  0
LINE
  5
17E
100
AcDbEntity
  8
0
  6
ByLayer
 62
  256
370
   -1
100
AcDbLine
 10
151.0279807250087
 20
-112.1332593807317
 11
144.3429021656143
 21
-113.3114724601653
  0
LINE
  5
17F
100
AcDbEntity
  8
0
  6
ByLayer
 62
  256
370
   -1
100
AcDbLine
 10
154.2054608840575
 20
-109.9528717231759
 11
229.658027145231
 21
-95.54047296068011
  0
LINE
  5
180
100
AcDbEntity
  8
0
  6
ByLayer
 62
  256
370
   -1
100
AcDbLine
 10
229.6580271452311
 20
-95.54047296068008
 11
230.3165712138249
 21
-99.23845825511162
  0
LINE
  5
181
100
AcDbEntity
  8
0
  6
ByLayer
 62
  256
370
   -1
100
AcDbLine
 10
151.0279807250085
 20
-112.1332593807318
 11
154.2054608840575
 21
-109.9528717231759
  0
LINE
  5
182
100
AcDbEntity
  8
0
  6
ByLayer
 62
  256
370
   -1
100
AcDbLine
 10
111.6600126999999
 20
-237.3861724599421
 11
79.17712323438592
 21
-237.3862488550029
  0
LINE
  5
183
100
AcDbEntity
  8
0
  6
ByLayer
 62
  256
370
   -1
100
AcDbLine
 10
72.49204467499123
 20
-236.2080357755693
 11
79.17712323438559
 21
-237.3862488550029
  0
LINE
  5
184
100
AcDbEntity
  8
0
  6
ByLayer
 62
  256
370
   -1
100
AcDbLine
 10
69.31456451594244
 20
-234.0276481180135
 11
-6.138001745231051
 21
-219.6152493555177
  0
LINE
  5
185
100
AcDbEntity
  8
0
  6
ByLayer
 62
  256
370
   -1
100
AcDbLine
 10
-6.138001745231179
 20
-219.6152493555177
 11
-6.79654581382502
 21
-223.3132346499492
  0
LINE
  5
186
100
AcDbEntity
  8
0
  6
ByLayer
 62
  256
370
   -1
100
AcDbLine
 10
72.49204467499135
 20
-236.2080357755694
 11
69.31456451594244
 21
-234.0276481180135
  0
LINE
  5
187
100
AcDbEntity
  8
0
  6
ByLayer
 62
  256
370
   -1
100
AcDbLine
 10
151.0279807250087
 20
-236.2080357755693
 11
144.3429021656143
 21
-237.3862488550029
  0
LINE
  5
188
100
AcDbEntity
  8
0
  6
ByLayer
 62
  256
370
   -1
100
AcDbLine
 10
154.2054608840575
 20
-234.0276481180135
 11
229.658027145231
 21
-219.6152493555177
  0
LINE
  5
189
100
AcDbEntity
  8
0
  6
ByLayer
 62
  256
370
   -1
100
AcDbLine
 10
229.6580271452311
 20
-219.6152493555177
 11
230.3165712138249
 21
-223.3132346499492
  0
LINE
  5
18A
100
AcDbEntity
  8
0
  6
ByLayer
 62
  256
370
   -1
100
AcDbLine
 10
151.0279807250085
 20
-236.2080357755694
 11
154.2054608840575
 21
-234.0276481180135
  0
LINE
  5
18B
100
AcDbEntity
  8
0
  6
ByLayer
 62
  256
370
   -1
100
AcDbLine
 10
168.5831896482384
 20
-126.2965956905622
 11
165.2792463616955
 21
-127.2684609898805
  0
LINE
  5
18C
100
AcDbEntity
  8
0
  6
ByLayer
 62
  256
370
   -1
100
AcDbLine
 10
118.8238460680242
 20
-125.001876557708
 11
118.8235530010002
 21
-127.2684609898805
  0
LINE
  5
18D
100
AcDbEntity
  8
0
  6
ByLayer
 62
  256
370
   -1
100
AcDbLine
 10
118.8235530010002
 20
-127.2684609898805
 11
165.2792463616955
 21
-127.2684609898805
  0
LINE
  5
18E
100
AcDbEntity
  8
0
  6
ByLayer
 62
  256
370
   -1
100
AcDbLine
 10
178.5069491012082
 20
-127.2684609898805
 11
176.1444520199703
 21
-126.2965956905622
  0
LINE
  5
18F
100
AcDbEntity
  8
0
  6
ByLayer
 62
  256
370
   -1
100
AcDbLine
 10
216.7745801399313
 20
-127.2684609898805
 11
215.915931182929
 21
-122.4467508244215
  0
LINE
  5
190
100
AcDbEntity
  8
0
  6
ByLayer
 62
  256
370
   -1
100
AcDbLine
 10
178.5069491012082
 20
-127.2684609898805
 11
216.7745801399313
 21
-127.2684609898805
  0
LINE
  5
191
100
AcDbEntity
  8
0
  6
ByLayer
 62
  256
370
   -1
100
AcDbLine
 10
47.37557338002961
 20
-126.2965956905622
 11
54.93683575176149
 21
-126.2965956905622
  0
LINE
  5
192
100
AcDbEntity
  8
0
  6
ByLayer
 62
  256
370
   -1
100
AcDbLine
 10
54.93683575176149
 20
-126.2965956905622
 11
58.2407790383044
 21
-127.2684609898805
  0
LINE
  5
193
100
AcDbEntity
  8
0
  6
ByLayer
 62
  256
370
   -1
100
AcDbLine
 10
45.01307629879167
 20
-127.2684609898805
 11
47.37557338002961
 21
-126.2965956905622
  0
LINE
  5
194
100
AcDbEntity
  8
0
  6
ByLayer
 62
  256
370
   -1
100
AcDbLine
 10
45.01307629879167
 20
-127.2684609898805
 11
6.74544526006855
 21
-127.2684609898805
  0
LINE
  5
195
100
AcDbEntity
  8
0
  6
ByLayer
 62
  256
370
   -1
100
AcDbLine
 10
7.60430736196102
 20
-122.4467508244215
 11
6.74544526006855
 21
-127.2684609898805
  0
LINE
  5
196
100
AcDbEntity
  8
0
  6
ByLayer
 62
  256
370
   -1
100
AcDbLine
 10
176.1444520199703
 20
-2.221819295724575
 11
168.5831896482384
 21
-2.221819295724575
  0
LINE
  5
197
100
AcDbEntity
  8
0
  6
ByLayer
 62
  256
370
   -1
100
AcDbLine
 10
168.5831896482384
 20
-2.221819295724575
 11
165.2792463616955
 21
-3.1936845950429
  0
LINE
  5
198
100
AcDbEntity
  8
0
  6
ByLayer
 62
  256
370
   -1
100
AcDbLine
 10
178.5069491012082
 20
-3.1936845950429
 11
176.1444520199703
 21
-2.221819295724575
  0
LINE
  5
199
100
AcDbEntity
  8
0
  6
ByLayer
 62
  256
370
   -1
100
AcDbLine
 10
216.7745801399313
 20
-3.1936845950429
 11
215.915931182929
 21
1.628025570416124
  0
LINE
  5
19A
100
AcDbEntity
  8
0
  6
ByLayer
 62
  256
370
   -1
100
AcDbLine
 10
178.5069491012082
 20
-3.1936845950429
 11
216.7745801399313
 21
-3.1936845950429
  0
LINE
  5
19B
100
AcDbEntity
  8
0
  6
ByLayer
 62
  256
370
   -1
100
AcDbLine
 10
47.37557338002961
 20
-2.221819295724575
 11
54.93683575176149
 21
-2.221819295724575
  0
LINE
  5
19C
100
AcDbEntity
  8
0
  6
ByLayer
 62
  256
370
   -1
100
AcDbLine
 10
54.93683575176149
 20
-2.221819295724575
 11
58.2407790383044
 21
-3.1936845950429
  0
LINE
  5
19D
100
AcDbEntity
  8
0
  6
ByLayer
 62
  256
370
   -1
100
AcDbLine
 10
45.01307629879167
 20
-3.1936845950429
 11
47.37557338002961
 21
-2.221819295724575
  0
LINE
  5
19E
100
AcDbEntity
  8
0
  6
ByLayer
 62
  256
370
   -1
100
AcDbLine
 10
45.01307629879167
 20
-3.1936845950429
 11
6.74544526006855
 21
-3.1936845950429
  0
LINE
  5
19F
100
AcDbEntity
  8
0
  6
ByLayer
 62
  256
370
   -1
100
AcDbLine
 10
7.60430736196102
 20
1.628025570416124
 11
6.74544526006855
 21
-3.1936845950429
  0
LINE
  5
1A0
100
AcDbEntity
  8
0
  6
ByLayer
 62
  256
370
   -1
100
AcDbLine
 10
159.2776851757154
 20
-0.8101212584752808
 11
159.2776851757154
 21
-3.193684595042898
  0
LINE
  5
1A1
100
AcDbEntity
  8
0
  6
ByLayer
 62
  256
370
   -1
100
AcDbLine
 10
145.7984611785895
 20
-0.8101212584752808
 11
145.7984611785895
 21
-3.193684595042893
  0
LINE
  5
1A2
100
AcDbEntity
  8
0
  6
ByLayer
 62
  256
370
   -1
100
AcDbLine
 10
118.8238460680242
 20
-0.9271001628703779
 11
118.8235530010002
 21
-3.193684595042885
  0
LINE
  5
1A3
100
AcDbEntity
  8
0
  6
ByLayer
 62
  256
370
   -1
100
AcDbLine
 10
159.2776851757154
 20
-3.193684595042898
 11
165.2792463616955
 21
-3.1936845950429
  0
LINE
  5
1A4
100
AcDbEntity
  8
0
  6
ByLayer
 62
  256
370
   -1
100
AcDbLine
 10
145.7984611785895
 20
-3.193684595042893
 11
118.8235530010002
 21
-3.193684595042885
  0
LINE
  5
1A5
100
AcDbEntity
  8
0
  6
ByLayer
 62
  256
370
   -1
100
AcDbLine
 10
-6
 20
0
 11
6
 21
0
  0
LINE
  5
1A6
100
AcDbEntity
  8
0
  6
ByLayer
 62
  256
370
   -1
100
AcDbLine
 10
0
 20
0
 11
0
 21
16
  0
LINE
  5
1A7
100
AcDbEntity
  8
0
  6
ByLayer
 62
  256
370
   -1
100
AcDbLine
 10
104.769559931976
 20
-125.0018765577079
 11
104.769852999
 21
-127.2684609898804
  0
LINE
  5
1A8
100
AcDbEntity
  8
0
  6
ByLayer
 62
  256
370
   -1
100
AcDbLine
 10
104.769852999
 20
-127.2684609898804
 11
58.2407790383044
 21
-127.2684609898805
  0
LINE
  5
1A9
100
AcDbEntity
  8
0
  6
ByLayer
 62
  256
370
   -1
100
AcDbLine
 10
104.769559931976
 20
-0.9271001628703779
 11
104.769852999
 21
-3.193684595042885
  0
LINE
  5
1AA
100
AcDbEntity
  8
0
  6
ByLayer
 62
  256
370
   -1
100
AcDbLine
 10
104.769852999
 20
-3.193684595042885
 11
58.2407790383044
 21
-3.1936845950429
  0
LINE
  5
1AB
100
AcDbEntity
  8
0
  6
ByLayer
 62
  256
370
   -1
100
AcDbLine
 10
120.9245328958129
 20
-8.371974429583876
 11
121.9883662638372
 21
-8.371974429583815
  0
SPLINE
  5
1AC
100
AcDbEntity
  8
0
  6
ByLayer
 62
  256
370
   -1
100
AcDbSpline
210
0
220
0
230
0
 70
    8
 71
    2
 72
    6
 73
    3
 74
    0
 42
1e-007
 43
1e-007
 40
0
 40
0
 40
0
 40
1
 40
1
 40
1
 10
118.8238460680242
 20
-10.92710016287035
 30
0
 10
119.2544148037481
 20
-8.421687162326752
 30
0
 10
121.9883662638372
 20
-8.371974429583876
 30
0
  0
SPLINE
  5
1AD
100
AcDbEntity
  8
0
  6
ByLayer
 62
  256
370
   -1
100
AcDbSpline
210
0
220
0
230
0
 70
    8
 71
    2
 72
    6
 73
    3
 74
    0
 42
1e-007
 43
1e-007
 40
0
 40
0
 40
0
 40
1
 40
1
 40
1
 10
104.769559931976
 20
-10.92710016287035
 30
0
 10
104.338991196252
 20
-8.421687162326752
 30
0
 10
101.605039736163
 20
-8.371974429583876
 30
0
  0
SPLINE
  5
1AE
100
AcDbEntity
  8
0
  6
ByLayer
 62
  256
370
   -1
100
AcDbSpline
210
0
220
0
230
0
 70
    8
 71
    2
 72
    6
 73
    3
 74
    0
 42
1e-007
 43
1e-007
 40
0
 40
0
 40
0
 40
1
 40
1
 40
1
 10
118.8214842175403
 20
-28.38851749372898
 30
0
 10
118.8179723675065
 20
-29.25994986838786
 30
0
 10
117.7953730168733
 20
-29.19368459504286
 30
0
  0
LINE
  5
1AF
100
AcDbEntity
  8
0
  6
ByLayer
 62
  256
370
   -1
100
AcDbLine
 10
159.2776851757154
 20
-17.65848274398175
 11
159.2776851757154
 21
-10.81012125847528
  0
SPLINE
  5
1B0
100
AcDbEntity
  8
0
  6
ByLayer
 62
  256
370
   -1
100
AcDbSpline
210
0
220
0
230
0
 70
    8
 71
    2
 72
    6
 73
    3
 74
    0
 42
1e-007
 43
1e-007
 40
0
 40
0
 40
0
 40
1
 40
1
 40
1
 10
145.7984611785895
 20
-17.65848274398175
 30
0
 10
145.8019730286233
 20
-18.52991511864063
 30
0
 10
146.8245723792565
 20
-18.46364984529563
 30
0
  0
SPLINE
  5
1B1
100
AcDbEntity
  8
0
  6
ByLayer
 62
  256
370
   -1
100
AcDbSpline
210
0
220
0
230
0
 70
    8
 71
    2
 72
    6
 73
    3
 74
    0
 42
1e-007
 43
1e-007
 40
0
 40
0
 40
0
 40
1
 40
1
 40
1
 10
104.7719217824599
 20
-28.38851749372898
 30
0
 10
104.7754336324937
 20
-29.25994986838786
 30
0
 10
105.7980329831269
 20
-29.19368459504286
 30
0
  0
LINE
  5
1B2
100
AcDbEntity
  8
0
  6
ByLayer
 62
  256
370
   -1
100
AcDbLine
 10
158.2515739750484
 20
-18.46364984529563
 11
146.8245723792565
 21
-18.46364984529563
  0
LINE
  5
1B3
100
AcDbEntity
  8
0
  6
ByLayer
 62
  256
370
   -1
100
AcDbLine
 10
145.7984611785895
 20
-17.65848274398175
 11
145.7984611785895
 21
-10.81012125847528
  0
LINE
  5
1B4
100
AcDbEntity
  8
0
  6
ByLayer
 62
  256
370
   -1
100
AcDbLine
 10
104.769559931976
 20
-10.92710016287035
 11
104.7719217824599
 21
-28.38851749372898
  0
LINE
  5
1B5
100
AcDbEntity
  8
0
  6
ByLayer
 62
  256
370
   -1
100
AcDbLine
 10
105.7980329831269
 20
-29.19368459504286
 11
117.7953730168733
 21
-29.19368459504286
  0
LINE
  5
1B6
100
AcDbEntity
  8
0
  6
ByLayer
 62
  256
370
   -1
100
AcDbLine
 10
118.8238460680242
 20
-10.92710016287035
 11
118.8214842175403
 21
-28.38851749372898
  0
LINE
  5
1B7
100
AcDbEntity
  8
0
  6
ByLayer
 62
  256
370
   -1
100
AcDbLine
 10
7.815941386537531
 20
-8.371974429583815
 11
101.605039736163
 21
-8.371974429583876
  0
LINE
  5
1B8
100
AcDbEntity
  8
0
  6
ByLayer
 62
  256
370
   -1
100
AcDbLine
 10
101.605039736163
 20
-132.4467508244215
 11
121.9883662638372
 21
-132.4467508244215
  0
ENDSEC
  0
SECTION
  2
OBJECTS
  0
DICTIONARY
  5
C
330
0
100
AcDbDictionary
281
    1
  3
ACAD_GROUP
350
D
  0
DICTIONARY
  5
D
330
C
100
AcDbDictionary
281
    1
  0
PLOTSETTINGS
  5
1B9
100
AcDbPlotSettings
  6
1x1
 40
0
 41
0
 42
0
 43
0
  0
ENDSEC
  0
EOF
